<mxfile host="app.diagrams.net" modified="2023-06-02T05:45:35.715Z" agent="Mozilla/5.0 (Macintosh; Intel Mac OS X 10_15_7) AppleWebKit/537.36 (KHTML, like Gecko) Chrome/113.0.0.0 Safari/537.36" etag="HZKCC87Nfl64Ho4vG_Bw" version="21.3.7" type="github" pages="5">
  <diagram name="Level-1" id="EeMCCWi5ozeVrFIkWXVb">
    <mxGraphModel dx="954" dy="529" grid="1" gridSize="10" guides="1" tooltips="1" connect="1" arrows="1" fold="1" page="1" pageScale="1" pageWidth="2400" pageHeight="4800" math="0" shadow="0">
      <root>
        <mxCell id="0" />
        <mxCell id="1" parent="0" />
        <mxCell id="rRRZRKiBs5TybnArk32b-16" style="edgeStyle=orthogonalEdgeStyle;rounded=0;orthogonalLoop=1;jettySize=auto;html=1;fontColor=default;" parent="1" source="rRRZRKiBs5TybnArk32b-9" target="rRRZRKiBs5TybnArk32b-12" edge="1">
          <mxGeometry relative="1" as="geometry" />
        </mxCell>
        <mxCell id="rRRZRKiBs5TybnArk32b-17" style="edgeStyle=orthogonalEdgeStyle;rounded=0;orthogonalLoop=1;jettySize=auto;html=1;entryX=0;entryY=0.5;entryDx=0;entryDy=0;entryPerimeter=0;fontColor=default;" parent="1" source="rRRZRKiBs5TybnArk32b-9" target="rRRZRKiBs5TybnArk32b-13" edge="1">
          <mxGeometry relative="1" as="geometry" />
        </mxCell>
        <mxCell id="rRRZRKiBs5TybnArk32b-22" style="edgeStyle=orthogonalEdgeStyle;rounded=0;orthogonalLoop=1;jettySize=auto;html=1;entryX=0;entryY=0.5;entryDx=0;entryDy=0;entryPerimeter=0;fontColor=default;" parent="1" source="rRRZRKiBs5TybnArk32b-10" target="rRRZRKiBs5TybnArk32b-21" edge="1">
          <mxGeometry relative="1" as="geometry" />
        </mxCell>
        <mxCell id="rRRZRKiBs5TybnArk32b-10" value="" style="outlineConnect=0;dashed=0;verticalLabelPosition=bottom;verticalAlign=top;align=center;html=1;shape=mxgraph.aws3.application_load_balancer;fillColor=#F58534;gradientColor=none;labelBackgroundColor=none;fontColor=default;" parent="1" vertex="1">
          <mxGeometry x="520" y="74" width="69" height="72" as="geometry" />
        </mxCell>
        <mxCell id="rRRZRKiBs5TybnArk32b-12" value="" style="outlineConnect=0;dashed=0;verticalLabelPosition=bottom;verticalAlign=top;align=center;html=1;shape=mxgraph.aws3.application_load_balancer;fillColor=#F58534;gradientColor=none;labelBackgroundColor=none;fontColor=default;" parent="1" vertex="1">
          <mxGeometry x="520" y="200" width="69" height="72" as="geometry" />
        </mxCell>
        <mxCell id="rRRZRKiBs5TybnArk32b-13" value="" style="outlineConnect=0;dashed=0;verticalLabelPosition=bottom;verticalAlign=top;align=center;html=1;shape=mxgraph.aws3.application_load_balancer;fillColor=#F58534;gradientColor=none;labelBackgroundColor=none;fontColor=default;" parent="1" vertex="1">
          <mxGeometry x="520" y="330" width="69" height="72" as="geometry" />
        </mxCell>
        <mxCell id="rRRZRKiBs5TybnArk32b-15" value="AWS Cloud" style="points=[[0,0],[0.25,0],[0.5,0],[0.75,0],[1,0],[1,0.25],[1,0.5],[1,0.75],[1,1],[0.75,1],[0.5,1],[0.25,1],[0,1],[0,0.75],[0,0.5],[0,0.25]];outlineConnect=0;gradientColor=none;html=1;whiteSpace=wrap;fontSize=12;fontStyle=0;container=1;pointerEvents=0;collapsible=0;recursiveResize=0;shape=mxgraph.aws4.group;grIcon=mxgraph.aws4.group_aws_cloud_alt;strokeColor=#232F3E;fillColor=none;verticalAlign=top;align=left;spacingLeft=30;fontColor=#232F3E;dashed=0;labelBackgroundColor=none;" parent="1" vertex="1">
          <mxGeometry x="10" y="40" width="1510" height="590" as="geometry" />
        </mxCell>
        <mxCell id="rRRZRKiBs5TybnArk32b-14" value="" style="outlineConnect=0;dashed=0;verticalLabelPosition=bottom;verticalAlign=top;align=center;html=1;shape=mxgraph.aws3.application_load_balancer;fillColor=#F58534;gradientColor=none;labelBackgroundColor=none;fontColor=default;" parent="rRRZRKiBs5TybnArk32b-15" vertex="1">
          <mxGeometry x="490" y="430" width="69" height="72" as="geometry" />
        </mxCell>
        <mxCell id="rRRZRKiBs5TybnArk32b-9" value="" style="sketch=0;points=[[0,0,0],[0.25,0,0],[0.5,0,0],[0.75,0,0],[1,0,0],[0,1,0],[0.25,1,0],[0.5,1,0],[0.75,1,0],[1,1,0],[0,0.25,0],[0,0.5,0],[0,0.75,0],[1,0.25,0],[1,0.5,0],[1,0.75,0]];outlineConnect=0;fontColor=#232F3E;gradientColor=#945DF2;gradientDirection=north;fillColor=#5A30B5;strokeColor=#ffffff;dashed=0;verticalLabelPosition=bottom;verticalAlign=top;align=center;html=1;fontSize=12;fontStyle=0;aspect=fixed;shape=mxgraph.aws4.resourceIcon;resIcon=mxgraph.aws4.api_gateway;labelBackgroundColor=none;" parent="rRRZRKiBs5TybnArk32b-15" vertex="1">
          <mxGeometry x="170" y="200" width="170" height="170" as="geometry" />
        </mxCell>
        <mxCell id="rRRZRKiBs5TybnArk32b-18" style="edgeStyle=orthogonalEdgeStyle;rounded=0;orthogonalLoop=1;jettySize=auto;html=1;entryX=0;entryY=0.5;entryDx=0;entryDy=0;entryPerimeter=0;fontColor=default;" parent="rRRZRKiBs5TybnArk32b-15" source="rRRZRKiBs5TybnArk32b-9" target="rRRZRKiBs5TybnArk32b-14" edge="1">
          <mxGeometry relative="1" as="geometry" />
        </mxCell>
        <mxCell id="rRRZRKiBs5TybnArk32b-49" style="edgeStyle=orthogonalEdgeStyle;rounded=0;orthogonalLoop=1;jettySize=auto;html=1;fontColor=default;" parent="rRRZRKiBs5TybnArk32b-15" source="rRRZRKiBs5TybnArk32b-20" target="rRRZRKiBs5TybnArk32b-48" edge="1">
          <mxGeometry relative="1" as="geometry" />
        </mxCell>
        <mxCell id="rRRZRKiBs5TybnArk32b-20" value="" style="sketch=0;points=[[0,0,0],[0.25,0,0],[0.5,0,0],[0.75,0,0],[1,0,0],[0,1,0],[0.25,1,0],[0.5,1,0],[0.75,1,0],[1,1,0],[0,0.25,0],[0,0.5,0],[0,0.75,0],[1,0.25,0],[1,0.5,0],[1,0.75,0]];outlineConnect=0;fontColor=#232F3E;gradientColor=#F78E04;gradientDirection=north;fillColor=#D05C17;strokeColor=#ffffff;dashed=0;verticalLabelPosition=bottom;verticalAlign=top;align=center;html=1;fontSize=12;fontStyle=0;aspect=fixed;shape=mxgraph.aws4.resourceIcon;resIcon=mxgraph.aws4.compute;labelBackgroundColor=none;" parent="rRRZRKiBs5TybnArk32b-15" vertex="1">
          <mxGeometry x="880" y="30" width="78" height="78" as="geometry" />
        </mxCell>
        <mxCell id="rRRZRKiBs5TybnArk32b-23" style="edgeStyle=orthogonalEdgeStyle;rounded=0;orthogonalLoop=1;jettySize=auto;html=1;entryX=0;entryY=0.5;entryDx=0;entryDy=0;entryPerimeter=0;fontColor=default;" parent="rRRZRKiBs5TybnArk32b-15" source="rRRZRKiBs5TybnArk32b-21" target="rRRZRKiBs5TybnArk32b-20" edge="1">
          <mxGeometry relative="1" as="geometry" />
        </mxCell>
        <mxCell id="rRRZRKiBs5TybnArk32b-21" value="" style="sketch=0;points=[[0,0,0],[0.25,0,0],[0.5,0,0],[0.75,0,0],[1,0,0],[0,1,0],[0.25,1,0],[0.5,1,0],[0.75,1,0],[1,1,0],[0,0.25,0],[0,0.5,0],[0,0.75,0],[1,0.25,0],[1,0.5,0],[1,0.75,0]];outlineConnect=0;fontColor=#232F3E;gradientColor=#F78E04;gradientDirection=north;fillColor=#D05C17;strokeColor=#ffffff;dashed=0;verticalLabelPosition=bottom;verticalAlign=top;align=center;html=1;fontSize=12;fontStyle=0;aspect=fixed;shape=mxgraph.aws4.resourceIcon;resIcon=mxgraph.aws4.auto_scaling3;labelBackgroundColor=none;" parent="rRRZRKiBs5TybnArk32b-15" vertex="1">
          <mxGeometry x="700" y="30" width="78" height="78" as="geometry" />
        </mxCell>
        <mxCell id="rRRZRKiBs5TybnArk32b-24" style="edgeStyle=orthogonalEdgeStyle;rounded=0;orthogonalLoop=1;jettySize=auto;html=1;entryX=0;entryY=0.5;entryDx=0;entryDy=0;entryPerimeter=0;fontColor=default;" parent="rRRZRKiBs5TybnArk32b-15" target="rRRZRKiBs5TybnArk32b-27" edge="1">
          <mxGeometry relative="1" as="geometry">
            <mxPoint x="559" y="200" as="sourcePoint" />
          </mxGeometry>
        </mxCell>
        <mxCell id="rRRZRKiBs5TybnArk32b-51" style="edgeStyle=orthogonalEdgeStyle;rounded=0;orthogonalLoop=1;jettySize=auto;html=1;fontColor=default;" parent="rRRZRKiBs5TybnArk32b-15" source="rRRZRKiBs5TybnArk32b-25" target="rRRZRKiBs5TybnArk32b-50" edge="1">
          <mxGeometry relative="1" as="geometry" />
        </mxCell>
        <mxCell id="rRRZRKiBs5TybnArk32b-25" value="" style="sketch=0;points=[[0,0,0],[0.25,0,0],[0.5,0,0],[0.75,0,0],[1,0,0],[0,1,0],[0.25,1,0],[0.5,1,0],[0.75,1,0],[1,1,0],[0,0.25,0],[0,0.5,0],[0,0.75,0],[1,0.25,0],[1,0.5,0],[1,0.75,0]];outlineConnect=0;fontColor=#232F3E;gradientColor=#F78E04;gradientDirection=north;fillColor=#D05C17;strokeColor=#ffffff;dashed=0;verticalLabelPosition=bottom;verticalAlign=top;align=center;html=1;fontSize=12;fontStyle=0;aspect=fixed;shape=mxgraph.aws4.resourceIcon;resIcon=mxgraph.aws4.compute;labelBackgroundColor=none;" parent="rRRZRKiBs5TybnArk32b-15" vertex="1">
          <mxGeometry x="880" y="160" width="78" height="78" as="geometry" />
        </mxCell>
        <mxCell id="rRRZRKiBs5TybnArk32b-26" style="edgeStyle=orthogonalEdgeStyle;rounded=0;orthogonalLoop=1;jettySize=auto;html=1;entryX=0;entryY=0.5;entryDx=0;entryDy=0;entryPerimeter=0;fontColor=default;" parent="rRRZRKiBs5TybnArk32b-15" source="rRRZRKiBs5TybnArk32b-27" target="rRRZRKiBs5TybnArk32b-25" edge="1">
          <mxGeometry relative="1" as="geometry" />
        </mxCell>
        <mxCell id="rRRZRKiBs5TybnArk32b-27" value="" style="sketch=0;points=[[0,0,0],[0.25,0,0],[0.5,0,0],[0.75,0,0],[1,0,0],[0,1,0],[0.25,1,0],[0.5,1,0],[0.75,1,0],[1,1,0],[0,0.25,0],[0,0.5,0],[0,0.75,0],[1,0.25,0],[1,0.5,0],[1,0.75,0]];outlineConnect=0;fontColor=#232F3E;gradientColor=#F78E04;gradientDirection=north;fillColor=#D05C17;strokeColor=#ffffff;dashed=0;verticalLabelPosition=bottom;verticalAlign=top;align=center;html=1;fontSize=12;fontStyle=0;aspect=fixed;shape=mxgraph.aws4.resourceIcon;resIcon=mxgraph.aws4.auto_scaling3;labelBackgroundColor=none;" parent="rRRZRKiBs5TybnArk32b-15" vertex="1">
          <mxGeometry x="700" y="160" width="78" height="78" as="geometry" />
        </mxCell>
        <mxCell id="rRRZRKiBs5TybnArk32b-28" style="edgeStyle=orthogonalEdgeStyle;rounded=0;orthogonalLoop=1;jettySize=auto;html=1;entryX=0;entryY=0.5;entryDx=0;entryDy=0;entryPerimeter=0;fontColor=default;" parent="rRRZRKiBs5TybnArk32b-15" target="rRRZRKiBs5TybnArk32b-31" edge="1">
          <mxGeometry relative="1" as="geometry">
            <mxPoint x="559" y="320" as="sourcePoint" />
          </mxGeometry>
        </mxCell>
        <mxCell id="rRRZRKiBs5TybnArk32b-53" style="edgeStyle=orthogonalEdgeStyle;rounded=0;orthogonalLoop=1;jettySize=auto;html=1;entryX=0;entryY=0.25;entryDx=0;entryDy=0;fontColor=default;" parent="rRRZRKiBs5TybnArk32b-15" source="rRRZRKiBs5TybnArk32b-29" target="rRRZRKiBs5TybnArk32b-52" edge="1">
          <mxGeometry relative="1" as="geometry" />
        </mxCell>
        <mxCell id="rRRZRKiBs5TybnArk32b-29" value="" style="sketch=0;points=[[0,0,0],[0.25,0,0],[0.5,0,0],[0.75,0,0],[1,0,0],[0,1,0],[0.25,1,0],[0.5,1,0],[0.75,1,0],[1,1,0],[0,0.25,0],[0,0.5,0],[0,0.75,0],[1,0.25,0],[1,0.5,0],[1,0.75,0]];outlineConnect=0;fontColor=#232F3E;gradientColor=#F78E04;gradientDirection=north;fillColor=#D05C17;strokeColor=#ffffff;dashed=0;verticalLabelPosition=bottom;verticalAlign=top;align=center;html=1;fontSize=12;fontStyle=0;aspect=fixed;shape=mxgraph.aws4.resourceIcon;resIcon=mxgraph.aws4.compute;labelBackgroundColor=none;" parent="rRRZRKiBs5TybnArk32b-15" vertex="1">
          <mxGeometry x="880" y="280" width="78" height="78" as="geometry" />
        </mxCell>
        <mxCell id="rRRZRKiBs5TybnArk32b-30" style="edgeStyle=orthogonalEdgeStyle;rounded=0;orthogonalLoop=1;jettySize=auto;html=1;entryX=0;entryY=0.5;entryDx=0;entryDy=0;entryPerimeter=0;fontColor=default;" parent="rRRZRKiBs5TybnArk32b-15" source="rRRZRKiBs5TybnArk32b-31" target="rRRZRKiBs5TybnArk32b-29" edge="1">
          <mxGeometry relative="1" as="geometry" />
        </mxCell>
        <mxCell id="rRRZRKiBs5TybnArk32b-31" value="" style="sketch=0;points=[[0,0,0],[0.25,0,0],[0.5,0,0],[0.75,0,0],[1,0,0],[0,1,0],[0.25,1,0],[0.5,1,0],[0.75,1,0],[1,1,0],[0,0.25,0],[0,0.5,0],[0,0.75,0],[1,0.25,0],[1,0.5,0],[1,0.75,0]];outlineConnect=0;fontColor=#232F3E;gradientColor=#F78E04;gradientDirection=north;fillColor=#D05C17;strokeColor=#ffffff;dashed=0;verticalLabelPosition=bottom;verticalAlign=top;align=center;html=1;fontSize=12;fontStyle=0;aspect=fixed;shape=mxgraph.aws4.resourceIcon;resIcon=mxgraph.aws4.auto_scaling3;labelBackgroundColor=none;" parent="rRRZRKiBs5TybnArk32b-15" vertex="1">
          <mxGeometry x="700" y="280" width="78" height="78" as="geometry" />
        </mxCell>
        <mxCell id="rRRZRKiBs5TybnArk32b-32" style="edgeStyle=orthogonalEdgeStyle;rounded=0;orthogonalLoop=1;jettySize=auto;html=1;entryX=0;entryY=0.5;entryDx=0;entryDy=0;entryPerimeter=0;fontColor=default;" parent="rRRZRKiBs5TybnArk32b-15" target="rRRZRKiBs5TybnArk32b-35" edge="1">
          <mxGeometry relative="1" as="geometry">
            <mxPoint x="559" y="464" as="sourcePoint" />
          </mxGeometry>
        </mxCell>
        <mxCell id="rRRZRKiBs5TybnArk32b-55" style="edgeStyle=orthogonalEdgeStyle;rounded=0;orthogonalLoop=1;jettySize=auto;html=1;entryX=0;entryY=0.5;entryDx=0;entryDy=0;fontColor=default;" parent="rRRZRKiBs5TybnArk32b-15" source="rRRZRKiBs5TybnArk32b-33" target="rRRZRKiBs5TybnArk32b-54" edge="1">
          <mxGeometry relative="1" as="geometry" />
        </mxCell>
        <mxCell id="rRRZRKiBs5TybnArk32b-33" value="" style="sketch=0;points=[[0,0,0],[0.25,0,0],[0.5,0,0],[0.75,0,0],[1,0,0],[0,1,0],[0.25,1,0],[0.5,1,0],[0.75,1,0],[1,1,0],[0,0.25,0],[0,0.5,0],[0,0.75,0],[1,0.25,0],[1,0.5,0],[1,0.75,0]];outlineConnect=0;fontColor=#232F3E;gradientColor=#F78E04;gradientDirection=north;fillColor=#D05C17;strokeColor=#ffffff;dashed=0;verticalLabelPosition=bottom;verticalAlign=top;align=center;html=1;fontSize=12;fontStyle=0;aspect=fixed;shape=mxgraph.aws4.resourceIcon;resIcon=mxgraph.aws4.compute;labelBackgroundColor=none;" parent="rRRZRKiBs5TybnArk32b-15" vertex="1">
          <mxGeometry x="880" y="424" width="78" height="78" as="geometry" />
        </mxCell>
        <mxCell id="rRRZRKiBs5TybnArk32b-34" style="edgeStyle=orthogonalEdgeStyle;rounded=0;orthogonalLoop=1;jettySize=auto;html=1;entryX=0;entryY=0.5;entryDx=0;entryDy=0;entryPerimeter=0;fontColor=default;" parent="rRRZRKiBs5TybnArk32b-15" source="rRRZRKiBs5TybnArk32b-35" target="rRRZRKiBs5TybnArk32b-33" edge="1">
          <mxGeometry relative="1" as="geometry" />
        </mxCell>
        <mxCell id="rRRZRKiBs5TybnArk32b-35" value="" style="sketch=0;points=[[0,0,0],[0.25,0,0],[0.5,0,0],[0.75,0,0],[1,0,0],[0,1,0],[0.25,1,0],[0.5,1,0],[0.75,1,0],[1,1,0],[0,0.25,0],[0,0.5,0],[0,0.75,0],[1,0.25,0],[1,0.5,0],[1,0.75,0]];outlineConnect=0;fontColor=#232F3E;gradientColor=#F78E04;gradientDirection=north;fillColor=#D05C17;strokeColor=#ffffff;dashed=0;verticalLabelPosition=bottom;verticalAlign=top;align=center;html=1;fontSize=12;fontStyle=0;aspect=fixed;shape=mxgraph.aws4.resourceIcon;resIcon=mxgraph.aws4.auto_scaling3;labelBackgroundColor=none;" parent="rRRZRKiBs5TybnArk32b-15" vertex="1">
          <mxGeometry x="700" y="424" width="78" height="78" as="geometry" />
        </mxCell>
        <mxCell id="rRRZRKiBs5TybnArk32b-36" value="User Service" style="text;html=1;strokeColor=none;fillColor=none;align=center;verticalAlign=middle;whiteSpace=wrap;rounded=0;fontColor=default;" parent="rRRZRKiBs5TybnArk32b-15" vertex="1">
          <mxGeometry x="889" y="108" width="60" height="30" as="geometry" />
        </mxCell>
        <mxCell id="rRRZRKiBs5TybnArk32b-37" value="Catalog Service" style="text;html=1;strokeColor=none;fillColor=none;align=center;verticalAlign=middle;whiteSpace=wrap;rounded=0;fontColor=default;" parent="rRRZRKiBs5TybnArk32b-15" vertex="1">
          <mxGeometry x="889" y="238" width="60" height="30" as="geometry" />
        </mxCell>
        <mxCell id="rRRZRKiBs5TybnArk32b-38" value="Order Service" style="text;html=1;strokeColor=none;fillColor=none;align=center;verticalAlign=middle;whiteSpace=wrap;rounded=0;fontColor=default;" parent="rRRZRKiBs5TybnArk32b-15" vertex="1">
          <mxGeometry x="889" y="358" width="60" height="30" as="geometry" />
        </mxCell>
        <mxCell id="rRRZRKiBs5TybnArk32b-39" value="Payment Service" style="text;html=1;strokeColor=none;fillColor=none;align=center;verticalAlign=middle;whiteSpace=wrap;rounded=0;fontColor=default;" parent="rRRZRKiBs5TybnArk32b-15" vertex="1">
          <mxGeometry x="889" y="502" width="60" height="30" as="geometry" />
        </mxCell>
        <mxCell id="rRRZRKiBs5TybnArk32b-8" style="edgeStyle=orthogonalEdgeStyle;rounded=0;orthogonalLoop=1;jettySize=auto;html=1;fontColor=default;" parent="rRRZRKiBs5TybnArk32b-15" target="rRRZRKiBs5TybnArk32b-9" edge="1">
          <mxGeometry relative="1" as="geometry">
            <mxPoint x="110" y="220" as="sourcePoint" />
            <mxPoint x="170.21000000000004" y="73.96000000000004" as="targetPoint" />
          </mxGeometry>
        </mxCell>
        <mxCell id="rRRZRKiBs5TybnArk32b-43" value="" style="sketch=0;points=[[0,0,0],[0.25,0,0],[0.5,0,0],[0.75,0,0],[1,0,0],[0,1,0],[0.25,1,0],[0.5,1,0],[0.75,1,0],[1,1,0],[0,0.25,0],[0,0.5,0],[0,0.75,0],[1,0.25,0],[1,0.5,0],[1,0.75,0]];outlineConnect=0;fontColor=#232F3E;gradientColor=#FF4F8B;gradientDirection=north;fillColor=#BC1356;strokeColor=#ffffff;dashed=0;verticalLabelPosition=bottom;verticalAlign=top;align=center;html=1;fontSize=12;fontStyle=0;aspect=fixed;shape=mxgraph.aws4.resourceIcon;resIcon=mxgraph.aws4.mobile_application;labelBackgroundColor=none;" parent="rRRZRKiBs5TybnArk32b-15" vertex="1">
          <mxGeometry x="30" y="180" width="78" height="78" as="geometry" />
        </mxCell>
        <mxCell id="rRRZRKiBs5TybnArk32b-45" style="edgeStyle=orthogonalEdgeStyle;rounded=0;orthogonalLoop=1;jettySize=auto;html=1;fontColor=default;" parent="rRRZRKiBs5TybnArk32b-15" source="rRRZRKiBs5TybnArk32b-44" target="rRRZRKiBs5TybnArk32b-9" edge="1">
          <mxGeometry relative="1" as="geometry" />
        </mxCell>
        <mxCell id="rRRZRKiBs5TybnArk32b-44" value="" style="sketch=0;points=[[0,0,0],[0.25,0,0],[0.5,0,0],[0.75,0,0],[1,0,0],[0,1,0],[0.25,1,0],[0.5,1,0],[0.75,1,0],[1,1,0],[0,0.25,0],[0,0.5,0],[0,0.75,0],[1,0.25,0],[1,0.5,0],[1,0.75,0]];outlineConnect=0;fontColor=#232F3E;gradientColor=#FF4F8B;gradientDirection=north;fillColor=#BC1356;strokeColor=#ffffff;dashed=0;verticalLabelPosition=bottom;verticalAlign=top;align=center;html=1;fontSize=12;fontStyle=0;aspect=fixed;shape=mxgraph.aws4.resourceIcon;resIcon=mxgraph.aws4.mobile_application;labelBackgroundColor=none;" parent="rRRZRKiBs5TybnArk32b-15" vertex="1">
          <mxGeometry x="30" y="346" width="78" height="78" as="geometry" />
        </mxCell>
        <mxCell id="rRRZRKiBs5TybnArk32b-46" value="Admin" style="text;html=1;strokeColor=none;fillColor=none;align=center;verticalAlign=middle;whiteSpace=wrap;rounded=0;fontColor=default;" parent="rRRZRKiBs5TybnArk32b-15" vertex="1">
          <mxGeometry x="39" y="268" width="60" height="30" as="geometry" />
        </mxCell>
        <mxCell id="rRRZRKiBs5TybnArk32b-47" value="User" style="text;html=1;strokeColor=none;fillColor=none;align=center;verticalAlign=middle;whiteSpace=wrap;rounded=0;fontColor=default;" parent="rRRZRKiBs5TybnArk32b-15" vertex="1">
          <mxGeometry x="39" y="430" width="60" height="30" as="geometry" />
        </mxCell>
        <mxCell id="rRRZRKiBs5TybnArk32b-48" value="" style="image;html=1;image=img/lib/clip_art/computers/Database_128x128.png;labelBackgroundColor=none;fontColor=default;fillColor=none;" parent="rRRZRKiBs5TybnArk32b-15" vertex="1">
          <mxGeometry x="1080" y="28" width="80" height="80" as="geometry" />
        </mxCell>
        <mxCell id="rRRZRKiBs5TybnArk32b-50" value="" style="image;html=1;image=img/lib/clip_art/computers/Database_128x128.png;labelBackgroundColor=none;fontColor=default;fillColor=none;" parent="rRRZRKiBs5TybnArk32b-15" vertex="1">
          <mxGeometry x="1080" y="160" width="80" height="80" as="geometry" />
        </mxCell>
        <mxCell id="rRRZRKiBs5TybnArk32b-52" value="" style="image;html=1;image=img/lib/clip_art/computers/Database_128x128.png;labelBackgroundColor=none;fontColor=default;fillColor=none;" parent="rRRZRKiBs5TybnArk32b-15" vertex="1">
          <mxGeometry x="1080" y="290" width="80" height="80" as="geometry" />
        </mxCell>
        <mxCell id="rRRZRKiBs5TybnArk32b-54" value="" style="image;html=1;image=img/lib/clip_art/computers/Database_128x128.png;labelBackgroundColor=none;fontColor=default;fillColor=none;" parent="rRRZRKiBs5TybnArk32b-15" vertex="1">
          <mxGeometry x="1080" y="424" width="80" height="80" as="geometry" />
        </mxCell>
        <mxCell id="rRRZRKiBs5TybnArk32b-19" style="edgeStyle=orthogonalEdgeStyle;rounded=0;orthogonalLoop=1;jettySize=auto;html=1;entryX=0;entryY=0.5;entryDx=0;entryDy=0;entryPerimeter=0;fontColor=default;" parent="1" source="rRRZRKiBs5TybnArk32b-9" target="rRRZRKiBs5TybnArk32b-10" edge="1">
          <mxGeometry relative="1" as="geometry" />
        </mxCell>
      </root>
    </mxGraphModel>
  </diagram>
  <diagram name="Level-2" id="Ue_4RHvAqXz3PQ6tK3NN">
    <mxGraphModel dx="1379" dy="796" grid="1" gridSize="10" guides="1" tooltips="1" connect="1" arrows="1" fold="1" page="1" pageScale="1" pageWidth="2400" pageHeight="4800" math="0" shadow="0">
      <root>
        <mxCell id="zWDd0SAUT6zzluBltbF1-0" />
        <mxCell id="zWDd0SAUT6zzluBltbF1-1" parent="zWDd0SAUT6zzluBltbF1-0" />
        <mxCell id="zWDd0SAUT6zzluBltbF1-2" style="edgeStyle=orthogonalEdgeStyle;rounded=0;orthogonalLoop=1;jettySize=auto;html=1;fontColor=default;" parent="zWDd0SAUT6zzluBltbF1-1" source="zWDd0SAUT6zzluBltbF1-10" target="zWDd0SAUT6zzluBltbF1-6" edge="1">
          <mxGeometry relative="1" as="geometry">
            <Array as="points">
              <mxPoint x="440" y="325" />
              <mxPoint x="440" y="236" />
            </Array>
          </mxGeometry>
        </mxCell>
        <mxCell id="zWDd0SAUT6zzluBltbF1-3" style="edgeStyle=orthogonalEdgeStyle;rounded=0;orthogonalLoop=1;jettySize=auto;html=1;entryX=0;entryY=0.5;entryDx=0;entryDy=0;entryPerimeter=0;fontColor=default;" parent="zWDd0SAUT6zzluBltbF1-1" source="zWDd0SAUT6zzluBltbF1-10" target="zWDd0SAUT6zzluBltbF1-7" edge="1">
          <mxGeometry relative="1" as="geometry">
            <Array as="points">
              <mxPoint x="440" y="325" />
              <mxPoint x="440" y="366" />
            </Array>
          </mxGeometry>
        </mxCell>
        <mxCell id="zWDd0SAUT6zzluBltbF1-4" style="edgeStyle=orthogonalEdgeStyle;rounded=0;orthogonalLoop=1;jettySize=auto;html=1;entryX=0;entryY=0.5;entryDx=0;entryDy=0;entryPerimeter=0;fontColor=default;" parent="zWDd0SAUT6zzluBltbF1-1" source="zWDd0SAUT6zzluBltbF1-5" target="zWDd0SAUT6zzluBltbF1-15" edge="1">
          <mxGeometry relative="1" as="geometry" />
        </mxCell>
        <mxCell id="zWDd0SAUT6zzluBltbF1-5" value="" style="outlineConnect=0;dashed=0;verticalLabelPosition=bottom;verticalAlign=top;align=center;html=1;shape=mxgraph.aws3.application_load_balancer;fillColor=#F58534;gradientColor=none;labelBackgroundColor=none;fontColor=default;" parent="zWDd0SAUT6zzluBltbF1-1" vertex="1">
          <mxGeometry x="520" y="74" width="69" height="72" as="geometry" />
        </mxCell>
        <mxCell id="zWDd0SAUT6zzluBltbF1-6" value="" style="outlineConnect=0;dashed=0;verticalLabelPosition=bottom;verticalAlign=top;align=center;html=1;shape=mxgraph.aws3.application_load_balancer;fillColor=#F58534;gradientColor=none;labelBackgroundColor=none;fontColor=default;" parent="zWDd0SAUT6zzluBltbF1-1" vertex="1">
          <mxGeometry x="520" y="200" width="69" height="72" as="geometry" />
        </mxCell>
        <mxCell id="zWDd0SAUT6zzluBltbF1-7" value="" style="outlineConnect=0;dashed=0;verticalLabelPosition=bottom;verticalAlign=top;align=center;html=1;shape=mxgraph.aws3.application_load_balancer;fillColor=#F58534;gradientColor=none;labelBackgroundColor=none;fontColor=default;" parent="zWDd0SAUT6zzluBltbF1-1" vertex="1">
          <mxGeometry x="520" y="330" width="69" height="72" as="geometry" />
        </mxCell>
        <mxCell id="zWDd0SAUT6zzluBltbF1-8" value="AWS Cloud" style="points=[[0,0],[0.25,0],[0.5,0],[0.75,0],[1,0],[1,0.25],[1,0.5],[1,0.75],[1,1],[0.75,1],[0.5,1],[0.25,1],[0,1],[0,0.75],[0,0.5],[0,0.25]];outlineConnect=0;gradientColor=none;html=1;whiteSpace=wrap;fontSize=12;fontStyle=0;container=1;pointerEvents=0;collapsible=0;recursiveResize=0;shape=mxgraph.aws4.group;grIcon=mxgraph.aws4.group_aws_cloud_alt;strokeColor=#232F3E;fillColor=none;verticalAlign=top;align=left;spacingLeft=30;fontColor=#232F3E;dashed=0;labelBackgroundColor=none;" parent="zWDd0SAUT6zzluBltbF1-1" vertex="1">
          <mxGeometry x="10" y="40" width="1510" height="890" as="geometry" />
        </mxCell>
        <mxCell id="zWDd0SAUT6zzluBltbF1-9" value="" style="outlineConnect=0;dashed=0;verticalLabelPosition=bottom;verticalAlign=top;align=center;html=1;shape=mxgraph.aws3.application_load_balancer;fillColor=#F58534;gradientColor=none;labelBackgroundColor=none;fontColor=default;" parent="zWDd0SAUT6zzluBltbF1-8" vertex="1">
          <mxGeometry x="510" y="576" width="69" height="72" as="geometry" />
        </mxCell>
        <mxCell id="tgOBNUcdg1d-iNlKOO1c-16" style="edgeStyle=orthogonalEdgeStyle;rounded=0;orthogonalLoop=1;jettySize=auto;html=1;entryX=0;entryY=0.5;entryDx=0;entryDy=0;entryPerimeter=0;" parent="zWDd0SAUT6zzluBltbF1-8" source="zWDd0SAUT6zzluBltbF1-10" target="tgOBNUcdg1d-iNlKOO1c-8" edge="1">
          <mxGeometry relative="1" as="geometry">
            <Array as="points">
              <mxPoint x="430" y="285" />
              <mxPoint x="430" y="770" />
            </Array>
          </mxGeometry>
        </mxCell>
        <mxCell id="tgOBNUcdg1d-iNlKOO1c-17" value="Text" style="edgeLabel;html=1;align=center;verticalAlign=middle;resizable=0;points=[];" parent="tgOBNUcdg1d-iNlKOO1c-16" vertex="1" connectable="0">
          <mxGeometry x="0.1507" relative="1" as="geometry">
            <mxPoint y="146" as="offset" />
          </mxGeometry>
        </mxCell>
        <mxCell id="zWDd0SAUT6zzluBltbF1-10" value="" style="sketch=0;points=[[0,0,0],[0.25,0,0],[0.5,0,0],[0.75,0,0],[1,0,0],[0,1,0],[0.25,1,0],[0.5,1,0],[0.75,1,0],[1,1,0],[0,0.25,0],[0,0.5,0],[0,0.75,0],[1,0.25,0],[1,0.5,0],[1,0.75,0]];outlineConnect=0;fontColor=#232F3E;gradientColor=#945DF2;gradientDirection=north;fillColor=#5A30B5;strokeColor=#ffffff;dashed=0;verticalLabelPosition=bottom;verticalAlign=top;align=center;html=1;fontSize=12;fontStyle=0;aspect=fixed;shape=mxgraph.aws4.resourceIcon;resIcon=mxgraph.aws4.api_gateway;labelBackgroundColor=none;" parent="zWDd0SAUT6zzluBltbF1-8" vertex="1">
          <mxGeometry x="170" y="200" width="170" height="170" as="geometry" />
        </mxCell>
        <mxCell id="zWDd0SAUT6zzluBltbF1-11" style="edgeStyle=orthogonalEdgeStyle;rounded=0;orthogonalLoop=1;jettySize=auto;html=1;entryX=0;entryY=0.5;entryDx=0;entryDy=0;entryPerimeter=0;fontColor=default;" parent="zWDd0SAUT6zzluBltbF1-8" source="zWDd0SAUT6zzluBltbF1-10" target="zWDd0SAUT6zzluBltbF1-9" edge="1">
          <mxGeometry relative="1" as="geometry">
            <Array as="points">
              <mxPoint x="430" y="285" />
              <mxPoint x="430" y="612" />
            </Array>
          </mxGeometry>
        </mxCell>
        <mxCell id="zWDd0SAUT6zzluBltbF1-12" style="edgeStyle=orthogonalEdgeStyle;rounded=0;orthogonalLoop=1;jettySize=auto;html=1;fontColor=default;" parent="zWDd0SAUT6zzluBltbF1-8" source="zWDd0SAUT6zzluBltbF1-13" target="zWDd0SAUT6zzluBltbF1-41" edge="1">
          <mxGeometry relative="1" as="geometry" />
        </mxCell>
        <mxCell id="zWDd0SAUT6zzluBltbF1-13" value="" style="sketch=0;points=[[0,0,0],[0.25,0,0],[0.5,0,0],[0.75,0,0],[1,0,0],[0,1,0],[0.25,1,0],[0.5,1,0],[0.75,1,0],[1,1,0],[0,0.25,0],[0,0.5,0],[0,0.75,0],[1,0.25,0],[1,0.5,0],[1,0.75,0]];outlineConnect=0;fontColor=#232F3E;gradientColor=#F78E04;gradientDirection=north;fillColor=#D05C17;strokeColor=#ffffff;dashed=0;verticalLabelPosition=bottom;verticalAlign=top;align=center;html=1;fontSize=12;fontStyle=0;aspect=fixed;shape=mxgraph.aws4.resourceIcon;resIcon=mxgraph.aws4.compute;labelBackgroundColor=none;" parent="zWDd0SAUT6zzluBltbF1-8" vertex="1">
          <mxGeometry x="880" y="30" width="78" height="78" as="geometry" />
        </mxCell>
        <mxCell id="zWDd0SAUT6zzluBltbF1-14" style="edgeStyle=orthogonalEdgeStyle;rounded=0;orthogonalLoop=1;jettySize=auto;html=1;entryX=0;entryY=0.5;entryDx=0;entryDy=0;entryPerimeter=0;fontColor=default;" parent="zWDd0SAUT6zzluBltbF1-8" source="zWDd0SAUT6zzluBltbF1-15" target="zWDd0SAUT6zzluBltbF1-13" edge="1">
          <mxGeometry relative="1" as="geometry" />
        </mxCell>
        <mxCell id="zWDd0SAUT6zzluBltbF1-15" value="" style="sketch=0;points=[[0,0,0],[0.25,0,0],[0.5,0,0],[0.75,0,0],[1,0,0],[0,1,0],[0.25,1,0],[0.5,1,0],[0.75,1,0],[1,1,0],[0,0.25,0],[0,0.5,0],[0,0.75,0],[1,0.25,0],[1,0.5,0],[1,0.75,0]];outlineConnect=0;fontColor=#232F3E;gradientColor=#F78E04;gradientDirection=north;fillColor=#D05C17;strokeColor=#ffffff;dashed=0;verticalLabelPosition=bottom;verticalAlign=top;align=center;html=1;fontSize=12;fontStyle=0;aspect=fixed;shape=mxgraph.aws4.resourceIcon;resIcon=mxgraph.aws4.auto_scaling3;labelBackgroundColor=none;" parent="zWDd0SAUT6zzluBltbF1-8" vertex="1">
          <mxGeometry x="700" y="30" width="78" height="78" as="geometry" />
        </mxCell>
        <mxCell id="zWDd0SAUT6zzluBltbF1-16" style="edgeStyle=orthogonalEdgeStyle;rounded=0;orthogonalLoop=1;jettySize=auto;html=1;entryX=0;entryY=0.5;entryDx=0;entryDy=0;entryPerimeter=0;fontColor=default;" parent="zWDd0SAUT6zzluBltbF1-8" target="zWDd0SAUT6zzluBltbF1-20" edge="1">
          <mxGeometry relative="1" as="geometry">
            <mxPoint x="559" y="200" as="sourcePoint" />
          </mxGeometry>
        </mxCell>
        <mxCell id="zWDd0SAUT6zzluBltbF1-17" style="edgeStyle=orthogonalEdgeStyle;rounded=0;orthogonalLoop=1;jettySize=auto;html=1;fontColor=default;" parent="zWDd0SAUT6zzluBltbF1-8" source="zWDd0SAUT6zzluBltbF1-18" target="zWDd0SAUT6zzluBltbF1-42" edge="1">
          <mxGeometry relative="1" as="geometry" />
        </mxCell>
        <mxCell id="zWDd0SAUT6zzluBltbF1-18" value="" style="sketch=0;points=[[0,0,0],[0.25,0,0],[0.5,0,0],[0.75,0,0],[1,0,0],[0,1,0],[0.25,1,0],[0.5,1,0],[0.75,1,0],[1,1,0],[0,0.25,0],[0,0.5,0],[0,0.75,0],[1,0.25,0],[1,0.5,0],[1,0.75,0]];outlineConnect=0;fontColor=#232F3E;gradientColor=#F78E04;gradientDirection=north;fillColor=#D05C17;strokeColor=#ffffff;dashed=0;verticalLabelPosition=bottom;verticalAlign=top;align=center;html=1;fontSize=12;fontStyle=0;aspect=fixed;shape=mxgraph.aws4.resourceIcon;resIcon=mxgraph.aws4.compute;labelBackgroundColor=none;" parent="zWDd0SAUT6zzluBltbF1-8" vertex="1">
          <mxGeometry x="880" y="160" width="78" height="78" as="geometry" />
        </mxCell>
        <mxCell id="zWDd0SAUT6zzluBltbF1-19" style="edgeStyle=orthogonalEdgeStyle;rounded=0;orthogonalLoop=1;jettySize=auto;html=1;entryX=0;entryY=0.5;entryDx=0;entryDy=0;entryPerimeter=0;fontColor=default;" parent="zWDd0SAUT6zzluBltbF1-8" source="zWDd0SAUT6zzluBltbF1-20" target="zWDd0SAUT6zzluBltbF1-18" edge="1">
          <mxGeometry relative="1" as="geometry" />
        </mxCell>
        <mxCell id="zWDd0SAUT6zzluBltbF1-20" value="" style="sketch=0;points=[[0,0,0],[0.25,0,0],[0.5,0,0],[0.75,0,0],[1,0,0],[0,1,0],[0.25,1,0],[0.5,1,0],[0.75,1,0],[1,1,0],[0,0.25,0],[0,0.5,0],[0,0.75,0],[1,0.25,0],[1,0.5,0],[1,0.75,0]];outlineConnect=0;fontColor=#232F3E;gradientColor=#F78E04;gradientDirection=north;fillColor=#D05C17;strokeColor=#ffffff;dashed=0;verticalLabelPosition=bottom;verticalAlign=top;align=center;html=1;fontSize=12;fontStyle=0;aspect=fixed;shape=mxgraph.aws4.resourceIcon;resIcon=mxgraph.aws4.auto_scaling3;labelBackgroundColor=none;" parent="zWDd0SAUT6zzluBltbF1-8" vertex="1">
          <mxGeometry x="700" y="160" width="78" height="78" as="geometry" />
        </mxCell>
        <mxCell id="zWDd0SAUT6zzluBltbF1-21" style="edgeStyle=orthogonalEdgeStyle;rounded=0;orthogonalLoop=1;jettySize=auto;html=1;entryX=0;entryY=0.5;entryDx=0;entryDy=0;entryPerimeter=0;fontColor=default;" parent="zWDd0SAUT6zzluBltbF1-8" target="zWDd0SAUT6zzluBltbF1-25" edge="1">
          <mxGeometry relative="1" as="geometry">
            <mxPoint x="559" y="320" as="sourcePoint" />
          </mxGeometry>
        </mxCell>
        <mxCell id="zWDd0SAUT6zzluBltbF1-22" style="edgeStyle=orthogonalEdgeStyle;rounded=0;orthogonalLoop=1;jettySize=auto;html=1;entryX=0;entryY=0.25;entryDx=0;entryDy=0;fontColor=default;" parent="zWDd0SAUT6zzluBltbF1-8" source="zWDd0SAUT6zzluBltbF1-23" target="zWDd0SAUT6zzluBltbF1-43" edge="1">
          <mxGeometry relative="1" as="geometry">
            <Array as="points">
              <mxPoint x="1080" y="319" />
            </Array>
          </mxGeometry>
        </mxCell>
        <mxCell id="zWDd0SAUT6zzluBltbF1-23" value="" style="sketch=0;points=[[0,0,0],[0.25,0,0],[0.5,0,0],[0.75,0,0],[1,0,0],[0,1,0],[0.25,1,0],[0.5,1,0],[0.75,1,0],[1,1,0],[0,0.25,0],[0,0.5,0],[0,0.75,0],[1,0.25,0],[1,0.5,0],[1,0.75,0]];outlineConnect=0;fontColor=#232F3E;gradientColor=#F78E04;gradientDirection=north;fillColor=#D05C17;strokeColor=#ffffff;dashed=0;verticalLabelPosition=bottom;verticalAlign=top;align=center;html=1;fontSize=12;fontStyle=0;aspect=fixed;shape=mxgraph.aws4.resourceIcon;resIcon=mxgraph.aws4.compute;labelBackgroundColor=none;" parent="zWDd0SAUT6zzluBltbF1-8" vertex="1">
          <mxGeometry x="880" y="280" width="78" height="78" as="geometry" />
        </mxCell>
        <mxCell id="zWDd0SAUT6zzluBltbF1-24" style="edgeStyle=orthogonalEdgeStyle;rounded=0;orthogonalLoop=1;jettySize=auto;html=1;entryX=0;entryY=0.5;entryDx=0;entryDy=0;entryPerimeter=0;fontColor=default;" parent="zWDd0SAUT6zzluBltbF1-8" source="zWDd0SAUT6zzluBltbF1-25" target="zWDd0SAUT6zzluBltbF1-23" edge="1">
          <mxGeometry relative="1" as="geometry" />
        </mxCell>
        <mxCell id="zWDd0SAUT6zzluBltbF1-25" value="" style="sketch=0;points=[[0,0,0],[0.25,0,0],[0.5,0,0],[0.75,0,0],[1,0,0],[0,1,0],[0.25,1,0],[0.5,1,0],[0.75,1,0],[1,1,0],[0,0.25,0],[0,0.5,0],[0,0.75,0],[1,0.25,0],[1,0.5,0],[1,0.75,0]];outlineConnect=0;fontColor=#232F3E;gradientColor=#F78E04;gradientDirection=north;fillColor=#D05C17;strokeColor=#ffffff;dashed=0;verticalLabelPosition=bottom;verticalAlign=top;align=center;html=1;fontSize=12;fontStyle=0;aspect=fixed;shape=mxgraph.aws4.resourceIcon;resIcon=mxgraph.aws4.auto_scaling3;labelBackgroundColor=none;" parent="zWDd0SAUT6zzluBltbF1-8" vertex="1">
          <mxGeometry x="700" y="280" width="78" height="78" as="geometry" />
        </mxCell>
        <mxCell id="zWDd0SAUT6zzluBltbF1-26" style="edgeStyle=orthogonalEdgeStyle;rounded=0;orthogonalLoop=1;jettySize=auto;html=1;entryX=0;entryY=0.5;entryDx=0;entryDy=0;entryPerimeter=0;fontColor=default;" parent="zWDd0SAUT6zzluBltbF1-8" target="zWDd0SAUT6zzluBltbF1-30" edge="1">
          <mxGeometry relative="1" as="geometry">
            <mxPoint x="559" y="610" as="sourcePoint" />
          </mxGeometry>
        </mxCell>
        <mxCell id="zWDd0SAUT6zzluBltbF1-27" style="edgeStyle=orthogonalEdgeStyle;rounded=0;orthogonalLoop=1;jettySize=auto;html=1;entryX=0;entryY=0.5;entryDx=0;entryDy=0;fontColor=default;" parent="zWDd0SAUT6zzluBltbF1-8" source="zWDd0SAUT6zzluBltbF1-28" target="zWDd0SAUT6zzluBltbF1-44" edge="1">
          <mxGeometry relative="1" as="geometry" />
        </mxCell>
        <mxCell id="zWDd0SAUT6zzluBltbF1-28" value="" style="sketch=0;points=[[0,0,0],[0.25,0,0],[0.5,0,0],[0.75,0,0],[1,0,0],[0,1,0],[0.25,1,0],[0.5,1,0],[0.75,1,0],[1,1,0],[0,0.25,0],[0,0.5,0],[0,0.75,0],[1,0.25,0],[1,0.5,0],[1,0.75,0]];outlineConnect=0;fontColor=#232F3E;gradientColor=#F78E04;gradientDirection=north;fillColor=#D05C17;strokeColor=#ffffff;dashed=0;verticalLabelPosition=bottom;verticalAlign=top;align=center;html=1;fontSize=12;fontStyle=0;aspect=fixed;shape=mxgraph.aws4.resourceIcon;resIcon=mxgraph.aws4.compute;labelBackgroundColor=none;" parent="zWDd0SAUT6zzluBltbF1-8" vertex="1">
          <mxGeometry x="880" y="570" width="78" height="78" as="geometry" />
        </mxCell>
        <mxCell id="zWDd0SAUT6zzluBltbF1-29" style="edgeStyle=orthogonalEdgeStyle;rounded=0;orthogonalLoop=1;jettySize=auto;html=1;entryX=0;entryY=0.5;entryDx=0;entryDy=0;entryPerimeter=0;fontColor=default;" parent="zWDd0SAUT6zzluBltbF1-8" source="zWDd0SAUT6zzluBltbF1-30" target="zWDd0SAUT6zzluBltbF1-28" edge="1">
          <mxGeometry relative="1" as="geometry" />
        </mxCell>
        <mxCell id="zWDd0SAUT6zzluBltbF1-30" value="" style="sketch=0;points=[[0,0,0],[0.25,0,0],[0.5,0,0],[0.75,0,0],[1,0,0],[0,1,0],[0.25,1,0],[0.5,1,0],[0.75,1,0],[1,1,0],[0,0.25,0],[0,0.5,0],[0,0.75,0],[1,0.25,0],[1,0.5,0],[1,0.75,0]];outlineConnect=0;fontColor=#232F3E;gradientColor=#F78E04;gradientDirection=north;fillColor=#D05C17;strokeColor=#ffffff;dashed=0;verticalLabelPosition=bottom;verticalAlign=top;align=center;html=1;fontSize=12;fontStyle=0;aspect=fixed;shape=mxgraph.aws4.resourceIcon;resIcon=mxgraph.aws4.auto_scaling3;labelBackgroundColor=none;" parent="zWDd0SAUT6zzluBltbF1-8" vertex="1">
          <mxGeometry x="700" y="570" width="78" height="78" as="geometry" />
        </mxCell>
        <mxCell id="zWDd0SAUT6zzluBltbF1-31" value="User Service" style="text;html=1;strokeColor=none;fillColor=none;align=center;verticalAlign=middle;whiteSpace=wrap;rounded=0;fontColor=default;" parent="zWDd0SAUT6zzluBltbF1-8" vertex="1">
          <mxGeometry x="889" y="108" width="60" height="30" as="geometry" />
        </mxCell>
        <mxCell id="zWDd0SAUT6zzluBltbF1-32" value="Catalog Service" style="text;html=1;strokeColor=none;fillColor=none;align=center;verticalAlign=middle;whiteSpace=wrap;rounded=0;fontColor=default;" parent="zWDd0SAUT6zzluBltbF1-8" vertex="1">
          <mxGeometry x="889" y="238" width="60" height="30" as="geometry" />
        </mxCell>
        <mxCell id="tgOBNUcdg1d-iNlKOO1c-20" style="edgeStyle=orthogonalEdgeStyle;rounded=0;orthogonalLoop=1;jettySize=auto;html=1;startArrow=classic;startFill=1;" parent="zWDd0SAUT6zzluBltbF1-8" source="tgOBNUcdg1d-iNlKOO1c-21" target="zWDd0SAUT6zzluBltbF1-28" edge="1">
          <mxGeometry relative="1" as="geometry" />
        </mxCell>
        <mxCell id="zWDd0SAUT6zzluBltbF1-33" value="Order Service" style="text;html=1;strokeColor=none;fillColor=none;align=center;verticalAlign=middle;whiteSpace=wrap;rounded=0;fontColor=default;" parent="zWDd0SAUT6zzluBltbF1-8" vertex="1">
          <mxGeometry x="889" y="358" width="60" height="30" as="geometry" />
        </mxCell>
        <mxCell id="zWDd0SAUT6zzluBltbF1-34" value="Payment Service" style="text;html=1;strokeColor=none;fillColor=none;align=center;verticalAlign=middle;whiteSpace=wrap;rounded=0;fontColor=default;" parent="zWDd0SAUT6zzluBltbF1-8" vertex="1">
          <mxGeometry x="889" y="648" width="60" height="30" as="geometry" />
        </mxCell>
        <mxCell id="zWDd0SAUT6zzluBltbF1-35" style="edgeStyle=orthogonalEdgeStyle;rounded=0;orthogonalLoop=1;jettySize=auto;html=1;fontColor=default;" parent="zWDd0SAUT6zzluBltbF1-8" target="zWDd0SAUT6zzluBltbF1-10" edge="1">
          <mxGeometry relative="1" as="geometry">
            <mxPoint x="110" y="220" as="sourcePoint" />
            <mxPoint x="170.21000000000004" y="73.96000000000004" as="targetPoint" />
          </mxGeometry>
        </mxCell>
        <mxCell id="zWDd0SAUT6zzluBltbF1-36" value="" style="sketch=0;points=[[0,0,0],[0.25,0,0],[0.5,0,0],[0.75,0,0],[1,0,0],[0,1,0],[0.25,1,0],[0.5,1,0],[0.75,1,0],[1,1,0],[0,0.25,0],[0,0.5,0],[0,0.75,0],[1,0.25,0],[1,0.5,0],[1,0.75,0]];outlineConnect=0;fontColor=#232F3E;gradientColor=#FF4F8B;gradientDirection=north;fillColor=#BC1356;strokeColor=#ffffff;dashed=0;verticalLabelPosition=bottom;verticalAlign=top;align=center;html=1;fontSize=12;fontStyle=0;aspect=fixed;shape=mxgraph.aws4.resourceIcon;resIcon=mxgraph.aws4.mobile_application;labelBackgroundColor=none;" parent="zWDd0SAUT6zzluBltbF1-8" vertex="1">
          <mxGeometry x="30" y="180" width="78" height="78" as="geometry" />
        </mxCell>
        <mxCell id="zWDd0SAUT6zzluBltbF1-37" style="edgeStyle=orthogonalEdgeStyle;rounded=0;orthogonalLoop=1;jettySize=auto;html=1;fontColor=default;" parent="zWDd0SAUT6zzluBltbF1-8" source="zWDd0SAUT6zzluBltbF1-38" target="zWDd0SAUT6zzluBltbF1-10" edge="1">
          <mxGeometry relative="1" as="geometry" />
        </mxCell>
        <mxCell id="zWDd0SAUT6zzluBltbF1-38" value="" style="sketch=0;points=[[0,0,0],[0.25,0,0],[0.5,0,0],[0.75,0,0],[1,0,0],[0,1,0],[0.25,1,0],[0.5,1,0],[0.75,1,0],[1,1,0],[0,0.25,0],[0,0.5,0],[0,0.75,0],[1,0.25,0],[1,0.5,0],[1,0.75,0]];outlineConnect=0;fontColor=#232F3E;gradientColor=#FF4F8B;gradientDirection=north;fillColor=#BC1356;strokeColor=#ffffff;dashed=0;verticalLabelPosition=bottom;verticalAlign=top;align=center;html=1;fontSize=12;fontStyle=0;aspect=fixed;shape=mxgraph.aws4.resourceIcon;resIcon=mxgraph.aws4.mobile_application;labelBackgroundColor=none;" parent="zWDd0SAUT6zzluBltbF1-8" vertex="1">
          <mxGeometry x="30" y="346" width="78" height="78" as="geometry" />
        </mxCell>
        <mxCell id="zWDd0SAUT6zzluBltbF1-39" value="Admin" style="text;html=1;strokeColor=none;fillColor=none;align=center;verticalAlign=middle;whiteSpace=wrap;rounded=0;fontColor=default;" parent="zWDd0SAUT6zzluBltbF1-8" vertex="1">
          <mxGeometry x="39" y="268" width="60" height="30" as="geometry" />
        </mxCell>
        <mxCell id="zWDd0SAUT6zzluBltbF1-40" value="User" style="text;html=1;strokeColor=none;fillColor=none;align=center;verticalAlign=middle;whiteSpace=wrap;rounded=0;fontColor=default;" parent="zWDd0SAUT6zzluBltbF1-8" vertex="1">
          <mxGeometry x="39" y="430" width="60" height="30" as="geometry" />
        </mxCell>
        <mxCell id="zWDd0SAUT6zzluBltbF1-41" value="" style="image;html=1;image=img/lib/clip_art/computers/Database_128x128.png;labelBackgroundColor=none;fontColor=default;fillColor=none;" parent="zWDd0SAUT6zzluBltbF1-8" vertex="1">
          <mxGeometry x="1080" y="28" width="80" height="80" as="geometry" />
        </mxCell>
        <mxCell id="zWDd0SAUT6zzluBltbF1-42" value="" style="image;html=1;image=img/lib/clip_art/computers/Database_128x128.png;labelBackgroundColor=none;fontColor=default;fillColor=none;" parent="zWDd0SAUT6zzluBltbF1-8" vertex="1">
          <mxGeometry x="1080" y="160" width="80" height="80" as="geometry" />
        </mxCell>
        <mxCell id="zWDd0SAUT6zzluBltbF1-43" value="" style="image;html=1;image=img/lib/clip_art/computers/Database_128x128.png;labelBackgroundColor=none;fontColor=default;fillColor=none;" parent="zWDd0SAUT6zzluBltbF1-8" vertex="1">
          <mxGeometry x="1090" y="298" width="80" height="80" as="geometry" />
        </mxCell>
        <mxCell id="zWDd0SAUT6zzluBltbF1-44" value="" style="image;html=1;image=img/lib/clip_art/computers/Database_128x128.png;labelBackgroundColor=none;fontColor=default;fillColor=none;" parent="zWDd0SAUT6zzluBltbF1-8" vertex="1">
          <mxGeometry x="1080" y="570" width="80" height="80" as="geometry" />
        </mxCell>
        <mxCell id="tgOBNUcdg1d-iNlKOO1c-6" style="edgeStyle=orthogonalEdgeStyle;rounded=0;orthogonalLoop=1;jettySize=auto;html=1;entryX=1;entryY=0.5;entryDx=0;entryDy=0;" parent="zWDd0SAUT6zzluBltbF1-8" source="tgOBNUcdg1d-iNlKOO1c-5" target="zWDd0SAUT6zzluBltbF1-42" edge="1">
          <mxGeometry relative="1" as="geometry" />
        </mxCell>
        <mxCell id="tgOBNUcdg1d-iNlKOO1c-5" value="" style="sketch=0;points=[[0,0,0],[0.25,0,0],[0.5,0,0],[0.75,0,0],[1,0,0],[0,1,0],[0.25,1,0],[0.5,1,0],[0.75,1,0],[1,1,0],[0,0.25,0],[0,0.5,0],[0,0.75,0],[1,0.25,0],[1,0.5,0],[1,0.75,0]];outlineConnect=0;fontColor=#232F3E;gradientColor=#F78E04;gradientDirection=north;fillColor=#D05C17;strokeColor=#ffffff;dashed=0;verticalLabelPosition=bottom;verticalAlign=top;align=center;html=1;fontSize=12;fontStyle=0;aspect=fixed;shape=mxgraph.aws4.resourceIcon;resIcon=mxgraph.aws4.compute;labelBackgroundColor=none;" parent="zWDd0SAUT6zzluBltbF1-8" vertex="1">
          <mxGeometry x="1310" y="160" width="78" height="78" as="geometry" />
        </mxCell>
        <mxCell id="tgOBNUcdg1d-iNlKOO1c-7" value="Inventory Management" style="text;html=1;strokeColor=none;fillColor=none;align=center;verticalAlign=middle;whiteSpace=wrap;rounded=0;fontColor=default;" parent="zWDd0SAUT6zzluBltbF1-8" vertex="1">
          <mxGeometry x="1319" y="250" width="60" height="30" as="geometry" />
        </mxCell>
        <mxCell id="tgOBNUcdg1d-iNlKOO1c-9" style="edgeStyle=orthogonalEdgeStyle;rounded=0;orthogonalLoop=1;jettySize=auto;html=1;entryX=0;entryY=0.5;entryDx=0;entryDy=0;entryPerimeter=0;fontColor=default;" parent="zWDd0SAUT6zzluBltbF1-8" source="tgOBNUcdg1d-iNlKOO1c-8" target="tgOBNUcdg1d-iNlKOO1c-13" edge="1">
          <mxGeometry relative="1" as="geometry">
            <mxPoint x="529" y="772" as="sourcePoint" />
          </mxGeometry>
        </mxCell>
        <mxCell id="tgOBNUcdg1d-iNlKOO1c-18" style="edgeStyle=orthogonalEdgeStyle;rounded=0;orthogonalLoop=1;jettySize=auto;html=1;" parent="zWDd0SAUT6zzluBltbF1-8" source="tgOBNUcdg1d-iNlKOO1c-11" target="tgOBNUcdg1d-iNlKOO1c-14" edge="1">
          <mxGeometry relative="1" as="geometry" />
        </mxCell>
        <mxCell id="tgOBNUcdg1d-iNlKOO1c-11" value="" style="sketch=0;points=[[0,0,0],[0.25,0,0],[0.5,0,0],[0.75,0,0],[1,0,0],[0,1,0],[0.25,1,0],[0.5,1,0],[0.75,1,0],[1,1,0],[0,0.25,0],[0,0.5,0],[0,0.75,0],[1,0.25,0],[1,0.5,0],[1,0.75,0]];outlineConnect=0;fontColor=#232F3E;gradientColor=#F78E04;gradientDirection=north;fillColor=#D05C17;strokeColor=#ffffff;dashed=0;verticalLabelPosition=bottom;verticalAlign=top;align=center;html=1;fontSize=12;fontStyle=0;aspect=fixed;shape=mxgraph.aws4.resourceIcon;resIcon=mxgraph.aws4.compute;labelBackgroundColor=none;" parent="zWDd0SAUT6zzluBltbF1-8" vertex="1">
          <mxGeometry x="870" y="730" width="78" height="78" as="geometry" />
        </mxCell>
        <mxCell id="tgOBNUcdg1d-iNlKOO1c-12" style="edgeStyle=orthogonalEdgeStyle;rounded=0;orthogonalLoop=1;jettySize=auto;html=1;entryX=0;entryY=0.5;entryDx=0;entryDy=0;entryPerimeter=0;fontColor=default;" parent="zWDd0SAUT6zzluBltbF1-8" source="tgOBNUcdg1d-iNlKOO1c-13" target="tgOBNUcdg1d-iNlKOO1c-11" edge="1">
          <mxGeometry relative="1" as="geometry" />
        </mxCell>
        <mxCell id="tgOBNUcdg1d-iNlKOO1c-13" value="" style="sketch=0;points=[[0,0,0],[0.25,0,0],[0.5,0,0],[0.75,0,0],[1,0,0],[0,1,0],[0.25,1,0],[0.5,1,0],[0.75,1,0],[1,1,0],[0,0.25,0],[0,0.5,0],[0,0.75,0],[1,0.25,0],[1,0.5,0],[1,0.75,0]];outlineConnect=0;fontColor=#232F3E;gradientColor=#F78E04;gradientDirection=north;fillColor=#D05C17;strokeColor=#ffffff;dashed=0;verticalLabelPosition=bottom;verticalAlign=top;align=center;html=1;fontSize=12;fontStyle=0;aspect=fixed;shape=mxgraph.aws4.resourceIcon;resIcon=mxgraph.aws4.auto_scaling3;labelBackgroundColor=none;" parent="zWDd0SAUT6zzluBltbF1-8" vertex="1">
          <mxGeometry x="690" y="732" width="78" height="78" as="geometry" />
        </mxCell>
        <mxCell id="tgOBNUcdg1d-iNlKOO1c-14" value="" style="image;html=1;image=img/lib/clip_art/computers/Database_128x128.png;labelBackgroundColor=none;fontColor=default;fillColor=none;" parent="zWDd0SAUT6zzluBltbF1-8" vertex="1">
          <mxGeometry x="1070" y="730" width="80" height="80" as="geometry" />
        </mxCell>
        <mxCell id="tgOBNUcdg1d-iNlKOO1c-15" value="Promotion Service" style="text;html=1;strokeColor=none;fillColor=none;align=center;verticalAlign=middle;whiteSpace=wrap;rounded=0;fontColor=default;" parent="zWDd0SAUT6zzluBltbF1-8" vertex="1">
          <mxGeometry x="859" y="814" width="60" height="30" as="geometry" />
        </mxCell>
        <mxCell id="tgOBNUcdg1d-iNlKOO1c-8" value="" style="outlineConnect=0;dashed=0;verticalLabelPosition=bottom;verticalAlign=top;align=center;html=1;shape=mxgraph.aws3.application_load_balancer;fillColor=#F58534;gradientColor=none;labelBackgroundColor=none;fontColor=default;" parent="zWDd0SAUT6zzluBltbF1-8" vertex="1">
          <mxGeometry x="500" y="734" width="69" height="72" as="geometry" />
        </mxCell>
        <mxCell id="tgOBNUcdg1d-iNlKOO1c-21" value="Service to Service" style="text;html=1;strokeColor=none;fillColor=none;align=center;verticalAlign=middle;whiteSpace=wrap;rounded=0;" parent="zWDd0SAUT6zzluBltbF1-8" vertex="1">
          <mxGeometry x="889" y="460" width="60" height="30" as="geometry" />
        </mxCell>
        <mxCell id="tgOBNUcdg1d-iNlKOO1c-25" value="" style="edgeStyle=orthogonalEdgeStyle;rounded=0;orthogonalLoop=1;jettySize=auto;html=1;startArrow=classic;startFill=1;" parent="zWDd0SAUT6zzluBltbF1-8" source="zWDd0SAUT6zzluBltbF1-33" target="tgOBNUcdg1d-iNlKOO1c-21" edge="1">
          <mxGeometry relative="1" as="geometry">
            <mxPoint x="929" y="428" as="sourcePoint" />
            <mxPoint x="929" y="610" as="targetPoint" />
          </mxGeometry>
        </mxCell>
        <mxCell id="zWDd0SAUT6zzluBltbF1-45" style="edgeStyle=orthogonalEdgeStyle;rounded=0;orthogonalLoop=1;jettySize=auto;html=1;entryX=0;entryY=0.5;entryDx=0;entryDy=0;entryPerimeter=0;fontColor=default;" parent="zWDd0SAUT6zzluBltbF1-1" source="zWDd0SAUT6zzluBltbF1-10" target="zWDd0SAUT6zzluBltbF1-5" edge="1">
          <mxGeometry relative="1" as="geometry">
            <Array as="points">
              <mxPoint x="440" y="325" />
              <mxPoint x="440" y="110" />
            </Array>
          </mxGeometry>
        </mxCell>
        <mxCell id="tgOBNUcdg1d-iNlKOO1c-0" value="External Services" style="fillColor=none;strokeColor=#5A6C86;dashed=1;verticalAlign=top;fontStyle=0;fontColor=#5A6C86;whiteSpace=wrap;html=1;" parent="zWDd0SAUT6zzluBltbF1-1" vertex="1">
          <mxGeometry x="1550" y="40" width="180" height="890" as="geometry" />
        </mxCell>
        <mxCell id="tgOBNUcdg1d-iNlKOO1c-1" value="Payment Gateway" style="shape=cube;whiteSpace=wrap;html=1;boundedLbl=1;backgroundOutline=1;darkOpacity=0.05;darkOpacity2=0.1;" parent="zWDd0SAUT6zzluBltbF1-1" vertex="1">
          <mxGeometry x="1590" y="700" width="120" height="80" as="geometry" />
        </mxCell>
        <mxCell id="tgOBNUcdg1d-iNlKOO1c-2" style="edgeStyle=orthogonalEdgeStyle;rounded=0;orthogonalLoop=1;jettySize=auto;html=1;entryX=0;entryY=0;entryDx=0;entryDy=30;entryPerimeter=0;" parent="zWDd0SAUT6zzluBltbF1-1" source="zWDd0SAUT6zzluBltbF1-34" target="tgOBNUcdg1d-iNlKOO1c-1" edge="1">
          <mxGeometry relative="1" as="geometry">
            <Array as="points">
              <mxPoint x="929" y="730" />
              <mxPoint x="1590" y="730" />
            </Array>
          </mxGeometry>
        </mxCell>
        <mxCell id="tgOBNUcdg1d-iNlKOO1c-3" value="Google / Facebook&lt;br&gt;Login" style="shape=cube;whiteSpace=wrap;html=1;boundedLbl=1;backgroundOutline=1;darkOpacity=0.05;darkOpacity2=0.1;" parent="zWDd0SAUT6zzluBltbF1-1" vertex="1">
          <mxGeometry x="1590" y="74" width="120" height="80" as="geometry" />
        </mxCell>
        <mxCell id="tgOBNUcdg1d-iNlKOO1c-4" style="edgeStyle=orthogonalEdgeStyle;rounded=0;orthogonalLoop=1;jettySize=auto;html=1;" parent="zWDd0SAUT6zzluBltbF1-1" source="zWDd0SAUT6zzluBltbF1-13" target="tgOBNUcdg1d-iNlKOO1c-3" edge="1">
          <mxGeometry relative="1" as="geometry">
            <Array as="points">
              <mxPoint x="929" y="180" />
              <mxPoint x="1540" y="180" />
              <mxPoint x="1540" y="114" />
            </Array>
          </mxGeometry>
        </mxCell>
      </root>
    </mxGraphModel>
  </diagram>
  <diagram name="Level-3" id="m8ZaUysRIsTJqi3vB5GZ">
    <mxGraphModel dx="954" dy="529" grid="1" gridSize="10" guides="1" tooltips="1" connect="1" arrows="1" fold="1" page="1" pageScale="1" pageWidth="2400" pageHeight="4800" math="0" shadow="0">
      <root>
        <mxCell id="_9D6LDGhKCKMPMUo-ash-0" />
        <mxCell id="_9D6LDGhKCKMPMUo-ash-1" parent="_9D6LDGhKCKMPMUo-ash-0" />
        <mxCell id="_9D6LDGhKCKMPMUo-ash-2" style="edgeStyle=orthogonalEdgeStyle;rounded=0;orthogonalLoop=1;jettySize=auto;html=1;fontColor=default;" parent="_9D6LDGhKCKMPMUo-ash-1" source="_9D6LDGhKCKMPMUo-ash-12" target="_9D6LDGhKCKMPMUo-ash-6" edge="1">
          <mxGeometry relative="1" as="geometry">
            <Array as="points">
              <mxPoint x="440" y="325" />
              <mxPoint x="440" y="236" />
            </Array>
          </mxGeometry>
        </mxCell>
        <mxCell id="_9D6LDGhKCKMPMUo-ash-3" style="edgeStyle=orthogonalEdgeStyle;rounded=0;orthogonalLoop=1;jettySize=auto;html=1;entryX=0;entryY=0.5;entryDx=0;entryDy=0;entryPerimeter=0;fontColor=default;" parent="_9D6LDGhKCKMPMUo-ash-1" source="_9D6LDGhKCKMPMUo-ash-12" target="_9D6LDGhKCKMPMUo-ash-7" edge="1">
          <mxGeometry relative="1" as="geometry">
            <Array as="points">
              <mxPoint x="440" y="325" />
              <mxPoint x="440" y="366" />
            </Array>
          </mxGeometry>
        </mxCell>
        <mxCell id="_9D6LDGhKCKMPMUo-ash-4" style="edgeStyle=orthogonalEdgeStyle;rounded=0;orthogonalLoop=1;jettySize=auto;html=1;entryX=0;entryY=0.5;entryDx=0;entryDy=0;entryPerimeter=0;fontColor=default;" parent="_9D6LDGhKCKMPMUo-ash-1" source="_9D6LDGhKCKMPMUo-ash-5" target="_9D6LDGhKCKMPMUo-ash-17" edge="1">
          <mxGeometry relative="1" as="geometry" />
        </mxCell>
        <mxCell id="_9D6LDGhKCKMPMUo-ash-5" value="" style="outlineConnect=0;dashed=0;verticalLabelPosition=bottom;verticalAlign=top;align=center;html=1;shape=mxgraph.aws3.application_load_balancer;fillColor=#F58534;gradientColor=none;labelBackgroundColor=none;fontColor=default;" parent="_9D6LDGhKCKMPMUo-ash-1" vertex="1">
          <mxGeometry x="520" y="74" width="69" height="72" as="geometry" />
        </mxCell>
        <mxCell id="_9D6LDGhKCKMPMUo-ash-6" value="" style="outlineConnect=0;dashed=0;verticalLabelPosition=bottom;verticalAlign=top;align=center;html=1;shape=mxgraph.aws3.application_load_balancer;fillColor=#F58534;gradientColor=none;labelBackgroundColor=none;fontColor=default;" parent="_9D6LDGhKCKMPMUo-ash-1" vertex="1">
          <mxGeometry x="520" y="200" width="69" height="72" as="geometry" />
        </mxCell>
        <mxCell id="_9D6LDGhKCKMPMUo-ash-7" value="" style="outlineConnect=0;dashed=0;verticalLabelPosition=bottom;verticalAlign=top;align=center;html=1;shape=mxgraph.aws3.application_load_balancer;fillColor=#F58534;gradientColor=none;labelBackgroundColor=none;fontColor=default;" parent="_9D6LDGhKCKMPMUo-ash-1" vertex="1">
          <mxGeometry x="520" y="330" width="69" height="72" as="geometry" />
        </mxCell>
        <mxCell id="_9D6LDGhKCKMPMUo-ash-8" value="AWS Cloud" style="points=[[0,0],[0.25,0],[0.5,0],[0.75,0],[1,0],[1,0.25],[1,0.5],[1,0.75],[1,1],[0.75,1],[0.5,1],[0.25,1],[0,1],[0,0.75],[0,0.5],[0,0.25]];outlineConnect=0;gradientColor=none;html=1;whiteSpace=wrap;fontSize=12;fontStyle=0;container=1;pointerEvents=0;collapsible=0;recursiveResize=0;shape=mxgraph.aws4.group;grIcon=mxgraph.aws4.group_aws_cloud_alt;strokeColor=#232F3E;fillColor=none;verticalAlign=top;align=left;spacingLeft=30;fontColor=#232F3E;dashed=0;labelBackgroundColor=none;" parent="_9D6LDGhKCKMPMUo-ash-1" vertex="1">
          <mxGeometry x="10" y="40" width="1530" height="890" as="geometry" />
        </mxCell>
        <mxCell id="_9D6LDGhKCKMPMUo-ash-9" value="" style="outlineConnect=0;dashed=0;verticalLabelPosition=bottom;verticalAlign=top;align=center;html=1;shape=mxgraph.aws3.application_load_balancer;fillColor=#F58534;gradientColor=none;labelBackgroundColor=none;fontColor=default;" parent="_9D6LDGhKCKMPMUo-ash-8" vertex="1">
          <mxGeometry x="510" y="576" width="69" height="72" as="geometry" />
        </mxCell>
        <mxCell id="_9D6LDGhKCKMPMUo-ash-10" style="edgeStyle=orthogonalEdgeStyle;rounded=0;orthogonalLoop=1;jettySize=auto;html=1;entryX=0;entryY=0.5;entryDx=0;entryDy=0;entryPerimeter=0;" parent="_9D6LDGhKCKMPMUo-ash-8" source="_9D6LDGhKCKMPMUo-ash-12" target="_9D6LDGhKCKMPMUo-ash-58" edge="1">
          <mxGeometry relative="1" as="geometry">
            <Array as="points">
              <mxPoint x="430" y="285" />
              <mxPoint x="430" y="770" />
            </Array>
          </mxGeometry>
        </mxCell>
        <mxCell id="_9D6LDGhKCKMPMUo-ash-11" value="Text" style="edgeLabel;html=1;align=center;verticalAlign=middle;resizable=0;points=[];" parent="_9D6LDGhKCKMPMUo-ash-10" vertex="1" connectable="0">
          <mxGeometry x="0.1507" relative="1" as="geometry">
            <mxPoint y="146" as="offset" />
          </mxGeometry>
        </mxCell>
        <mxCell id="_9D6LDGhKCKMPMUo-ash-12" value="" style="sketch=0;points=[[0,0,0],[0.25,0,0],[0.5,0,0],[0.75,0,0],[1,0,0],[0,1,0],[0.25,1,0],[0.5,1,0],[0.75,1,0],[1,1,0],[0,0.25,0],[0,0.5,0],[0,0.75,0],[1,0.25,0],[1,0.5,0],[1,0.75,0]];outlineConnect=0;fontColor=#232F3E;gradientColor=#945DF2;gradientDirection=north;fillColor=#5A30B5;strokeColor=#ffffff;dashed=0;verticalLabelPosition=bottom;verticalAlign=top;align=center;html=1;fontSize=12;fontStyle=0;aspect=fixed;shape=mxgraph.aws4.resourceIcon;resIcon=mxgraph.aws4.api_gateway;labelBackgroundColor=none;" parent="_9D6LDGhKCKMPMUo-ash-8" vertex="1">
          <mxGeometry x="170" y="200" width="170" height="170" as="geometry" />
        </mxCell>
        <mxCell id="_9D6LDGhKCKMPMUo-ash-14" style="edgeStyle=orthogonalEdgeStyle;rounded=0;orthogonalLoop=1;jettySize=auto;html=1;fontColor=default;" parent="_9D6LDGhKCKMPMUo-ash-8" source="_9D6LDGhKCKMPMUo-ash-15" target="_9D6LDGhKCKMPMUo-ash-44" edge="1">
          <mxGeometry relative="1" as="geometry" />
        </mxCell>
        <mxCell id="_9D6LDGhKCKMPMUo-ash-15" value="" style="sketch=0;points=[[0,0,0],[0.25,0,0],[0.5,0,0],[0.75,0,0],[1,0,0],[0,1,0],[0.25,1,0],[0.5,1,0],[0.75,1,0],[1,1,0],[0,0.25,0],[0,0.5,0],[0,0.75,0],[1,0.25,0],[1,0.5,0],[1,0.75,0]];outlineConnect=0;fontColor=#232F3E;gradientColor=#F78E04;gradientDirection=north;fillColor=#D05C17;strokeColor=#ffffff;dashed=0;verticalLabelPosition=bottom;verticalAlign=top;align=center;html=1;fontSize=12;fontStyle=0;aspect=fixed;shape=mxgraph.aws4.resourceIcon;resIcon=mxgraph.aws4.compute;labelBackgroundColor=none;" parent="_9D6LDGhKCKMPMUo-ash-8" vertex="1">
          <mxGeometry x="880" y="30" width="78" height="78" as="geometry" />
        </mxCell>
        <mxCell id="_9D6LDGhKCKMPMUo-ash-16" style="edgeStyle=orthogonalEdgeStyle;rounded=0;orthogonalLoop=1;jettySize=auto;html=1;entryX=0;entryY=0.5;entryDx=0;entryDy=0;entryPerimeter=0;fontColor=default;" parent="_9D6LDGhKCKMPMUo-ash-8" source="_9D6LDGhKCKMPMUo-ash-17" target="_9D6LDGhKCKMPMUo-ash-15" edge="1">
          <mxGeometry relative="1" as="geometry" />
        </mxCell>
        <mxCell id="_9D6LDGhKCKMPMUo-ash-17" value="" style="sketch=0;points=[[0,0,0],[0.25,0,0],[0.5,0,0],[0.75,0,0],[1,0,0],[0,1,0],[0.25,1,0],[0.5,1,0],[0.75,1,0],[1,1,0],[0,0.25,0],[0,0.5,0],[0,0.75,0],[1,0.25,0],[1,0.5,0],[1,0.75,0]];outlineConnect=0;fontColor=#232F3E;gradientColor=#F78E04;gradientDirection=north;fillColor=#D05C17;strokeColor=#ffffff;dashed=0;verticalLabelPosition=bottom;verticalAlign=top;align=center;html=1;fontSize=12;fontStyle=0;aspect=fixed;shape=mxgraph.aws4.resourceIcon;resIcon=mxgraph.aws4.auto_scaling3;labelBackgroundColor=none;" parent="_9D6LDGhKCKMPMUo-ash-8" vertex="1">
          <mxGeometry x="700" y="30" width="78" height="78" as="geometry" />
        </mxCell>
        <mxCell id="_9D6LDGhKCKMPMUo-ash-18" style="edgeStyle=orthogonalEdgeStyle;rounded=0;orthogonalLoop=1;jettySize=auto;html=1;entryX=0;entryY=0.5;entryDx=0;entryDy=0;entryPerimeter=0;fontColor=default;" parent="_9D6LDGhKCKMPMUo-ash-8" target="_9D6LDGhKCKMPMUo-ash-22" edge="1">
          <mxGeometry relative="1" as="geometry">
            <mxPoint x="559" y="200" as="sourcePoint" />
          </mxGeometry>
        </mxCell>
        <mxCell id="_9D6LDGhKCKMPMUo-ash-19" style="edgeStyle=orthogonalEdgeStyle;rounded=0;orthogonalLoop=1;jettySize=auto;html=1;fontColor=default;" parent="_9D6LDGhKCKMPMUo-ash-8" source="_9D6LDGhKCKMPMUo-ash-20" target="_9D6LDGhKCKMPMUo-ash-45" edge="1">
          <mxGeometry relative="1" as="geometry" />
        </mxCell>
        <mxCell id="_9D6LDGhKCKMPMUo-ash-20" value="" style="sketch=0;points=[[0,0,0],[0.25,0,0],[0.5,0,0],[0.75,0,0],[1,0,0],[0,1,0],[0.25,1,0],[0.5,1,0],[0.75,1,0],[1,1,0],[0,0.25,0],[0,0.5,0],[0,0.75,0],[1,0.25,0],[1,0.5,0],[1,0.75,0]];outlineConnect=0;fontColor=#232F3E;gradientColor=#F78E04;gradientDirection=north;fillColor=#D05C17;strokeColor=#ffffff;dashed=0;verticalLabelPosition=bottom;verticalAlign=top;align=center;html=1;fontSize=12;fontStyle=0;aspect=fixed;shape=mxgraph.aws4.resourceIcon;resIcon=mxgraph.aws4.compute;labelBackgroundColor=none;" parent="_9D6LDGhKCKMPMUo-ash-8" vertex="1">
          <mxGeometry x="880" y="160" width="78" height="78" as="geometry" />
        </mxCell>
        <mxCell id="_9D6LDGhKCKMPMUo-ash-21" style="edgeStyle=orthogonalEdgeStyle;rounded=0;orthogonalLoop=1;jettySize=auto;html=1;entryX=0;entryY=0.5;entryDx=0;entryDy=0;entryPerimeter=0;fontColor=default;" parent="_9D6LDGhKCKMPMUo-ash-8" source="_9D6LDGhKCKMPMUo-ash-22" target="_9D6LDGhKCKMPMUo-ash-20" edge="1">
          <mxGeometry relative="1" as="geometry" />
        </mxCell>
        <mxCell id="_9D6LDGhKCKMPMUo-ash-22" value="" style="sketch=0;points=[[0,0,0],[0.25,0,0],[0.5,0,0],[0.75,0,0],[1,0,0],[0,1,0],[0.25,1,0],[0.5,1,0],[0.75,1,0],[1,1,0],[0,0.25,0],[0,0.5,0],[0,0.75,0],[1,0.25,0],[1,0.5,0],[1,0.75,0]];outlineConnect=0;fontColor=#232F3E;gradientColor=#F78E04;gradientDirection=north;fillColor=#D05C17;strokeColor=#ffffff;dashed=0;verticalLabelPosition=bottom;verticalAlign=top;align=center;html=1;fontSize=12;fontStyle=0;aspect=fixed;shape=mxgraph.aws4.resourceIcon;resIcon=mxgraph.aws4.auto_scaling3;labelBackgroundColor=none;" parent="_9D6LDGhKCKMPMUo-ash-8" vertex="1">
          <mxGeometry x="700" y="160" width="78" height="78" as="geometry" />
        </mxCell>
        <mxCell id="_9D6LDGhKCKMPMUo-ash-23" style="edgeStyle=orthogonalEdgeStyle;rounded=0;orthogonalLoop=1;jettySize=auto;html=1;entryX=0;entryY=0.5;entryDx=0;entryDy=0;entryPerimeter=0;fontColor=default;" parent="_9D6LDGhKCKMPMUo-ash-8" target="_9D6LDGhKCKMPMUo-ash-27" edge="1">
          <mxGeometry relative="1" as="geometry">
            <mxPoint x="559" y="320" as="sourcePoint" />
          </mxGeometry>
        </mxCell>
        <mxCell id="_9D6LDGhKCKMPMUo-ash-24" style="edgeStyle=orthogonalEdgeStyle;rounded=0;orthogonalLoop=1;jettySize=auto;html=1;entryX=0;entryY=0.25;entryDx=0;entryDy=0;fontColor=default;" parent="_9D6LDGhKCKMPMUo-ash-8" source="_9D6LDGhKCKMPMUo-ash-25" target="_9D6LDGhKCKMPMUo-ash-46" edge="1">
          <mxGeometry relative="1" as="geometry">
            <Array as="points">
              <mxPoint x="1080" y="319" />
            </Array>
          </mxGeometry>
        </mxCell>
        <mxCell id="_e1euGYEIjmJxFCFogni-4" style="edgeStyle=orthogonalEdgeStyle;rounded=0;orthogonalLoop=1;jettySize=auto;html=1;entryX=1;entryY=0.5;entryDx=0;entryDy=0;entryPerimeter=0;exitX=0;exitY=0.5;exitDx=0;exitDy=0;" parent="_9D6LDGhKCKMPMUo-ash-8" source="_e1euGYEIjmJxFCFogni-6" target="_e1euGYEIjmJxFCFogni-1" edge="1">
          <mxGeometry relative="1" as="geometry">
            <Array as="points">
              <mxPoint x="919" y="465" />
              <mxPoint x="919" y="460" />
            </Array>
          </mxGeometry>
        </mxCell>
        <mxCell id="_e1euGYEIjmJxFCFogni-7" style="edgeStyle=orthogonalEdgeStyle;rounded=0;orthogonalLoop=1;jettySize=auto;html=1;entryX=0.5;entryY=0;entryDx=0;entryDy=0;" parent="_9D6LDGhKCKMPMUo-ash-8" source="_9D6LDGhKCKMPMUo-ash-25" target="_e1euGYEIjmJxFCFogni-6" edge="1">
          <mxGeometry relative="1" as="geometry" />
        </mxCell>
        <mxCell id="_9D6LDGhKCKMPMUo-ash-25" value="" style="sketch=0;points=[[0,0,0],[0.25,0,0],[0.5,0,0],[0.75,0,0],[1,0,0],[0,1,0],[0.25,1,0],[0.5,1,0],[0.75,1,0],[1,1,0],[0,0.25,0],[0,0.5,0],[0,0.75,0],[1,0.25,0],[1,0.5,0],[1,0.75,0]];outlineConnect=0;fontColor=#232F3E;gradientColor=#F78E04;gradientDirection=north;fillColor=#D05C17;strokeColor=#ffffff;dashed=0;verticalLabelPosition=bottom;verticalAlign=top;align=center;html=1;fontSize=12;fontStyle=0;aspect=fixed;shape=mxgraph.aws4.resourceIcon;resIcon=mxgraph.aws4.compute;labelBackgroundColor=none;" parent="_9D6LDGhKCKMPMUo-ash-8" vertex="1">
          <mxGeometry x="880" y="280" width="78" height="78" as="geometry" />
        </mxCell>
        <mxCell id="_9D6LDGhKCKMPMUo-ash-26" style="edgeStyle=orthogonalEdgeStyle;rounded=0;orthogonalLoop=1;jettySize=auto;html=1;entryX=0;entryY=0.5;entryDx=0;entryDy=0;entryPerimeter=0;fontColor=default;" parent="_9D6LDGhKCKMPMUo-ash-8" source="_9D6LDGhKCKMPMUo-ash-27" target="_9D6LDGhKCKMPMUo-ash-25" edge="1">
          <mxGeometry relative="1" as="geometry" />
        </mxCell>
        <mxCell id="_9D6LDGhKCKMPMUo-ash-27" value="" style="sketch=0;points=[[0,0,0],[0.25,0,0],[0.5,0,0],[0.75,0,0],[1,0,0],[0,1,0],[0.25,1,0],[0.5,1,0],[0.75,1,0],[1,1,0],[0,0.25,0],[0,0.5,0],[0,0.75,0],[1,0.25,0],[1,0.5,0],[1,0.75,0]];outlineConnect=0;fontColor=#232F3E;gradientColor=#F78E04;gradientDirection=north;fillColor=#D05C17;strokeColor=#ffffff;dashed=0;verticalLabelPosition=bottom;verticalAlign=top;align=center;html=1;fontSize=12;fontStyle=0;aspect=fixed;shape=mxgraph.aws4.resourceIcon;resIcon=mxgraph.aws4.auto_scaling3;labelBackgroundColor=none;" parent="_9D6LDGhKCKMPMUo-ash-8" vertex="1">
          <mxGeometry x="700" y="280" width="78" height="78" as="geometry" />
        </mxCell>
        <mxCell id="_9D6LDGhKCKMPMUo-ash-28" style="edgeStyle=orthogonalEdgeStyle;rounded=0;orthogonalLoop=1;jettySize=auto;html=1;entryX=0;entryY=0.5;entryDx=0;entryDy=0;entryPerimeter=0;fontColor=default;" parent="_9D6LDGhKCKMPMUo-ash-8" target="_9D6LDGhKCKMPMUo-ash-32" edge="1">
          <mxGeometry relative="1" as="geometry">
            <mxPoint x="559" y="610" as="sourcePoint" />
          </mxGeometry>
        </mxCell>
        <mxCell id="_9D6LDGhKCKMPMUo-ash-29" style="edgeStyle=orthogonalEdgeStyle;rounded=0;orthogonalLoop=1;jettySize=auto;html=1;entryX=0;entryY=0.5;entryDx=0;entryDy=0;fontColor=default;" parent="_9D6LDGhKCKMPMUo-ash-8" source="_9D6LDGhKCKMPMUo-ash-30" target="_9D6LDGhKCKMPMUo-ash-47" edge="1">
          <mxGeometry relative="1" as="geometry" />
        </mxCell>
        <mxCell id="_e1euGYEIjmJxFCFogni-3" style="edgeStyle=orthogonalEdgeStyle;rounded=0;orthogonalLoop=1;jettySize=auto;html=1;" parent="_9D6LDGhKCKMPMUo-ash-8" source="_9D6LDGhKCKMPMUo-ash-30" target="_e1euGYEIjmJxFCFogni-1" edge="1">
          <mxGeometry relative="1" as="geometry">
            <Array as="points">
              <mxPoint x="919" y="490" />
            </Array>
          </mxGeometry>
        </mxCell>
        <mxCell id="_e1euGYEIjmJxFCFogni-8" style="edgeStyle=orthogonalEdgeStyle;rounded=0;orthogonalLoop=1;jettySize=auto;html=1;entryX=0.5;entryY=1;entryDx=0;entryDy=0;" parent="_9D6LDGhKCKMPMUo-ash-8" source="_9D6LDGhKCKMPMUo-ash-30" target="_e1euGYEIjmJxFCFogni-6" edge="1">
          <mxGeometry relative="1" as="geometry" />
        </mxCell>
        <mxCell id="_9D6LDGhKCKMPMUo-ash-30" value="" style="sketch=0;points=[[0,0,0],[0.25,0,0],[0.5,0,0],[0.75,0,0],[1,0,0],[0,1,0],[0.25,1,0],[0.5,1,0],[0.75,1,0],[1,1,0],[0,0.25,0],[0,0.5,0],[0,0.75,0],[1,0.25,0],[1,0.5,0],[1,0.75,0]];outlineConnect=0;fontColor=#232F3E;gradientColor=#F78E04;gradientDirection=north;fillColor=#D05C17;strokeColor=#ffffff;dashed=0;verticalLabelPosition=bottom;verticalAlign=top;align=center;html=1;fontSize=12;fontStyle=0;aspect=fixed;shape=mxgraph.aws4.resourceIcon;resIcon=mxgraph.aws4.compute;labelBackgroundColor=none;" parent="_9D6LDGhKCKMPMUo-ash-8" vertex="1">
          <mxGeometry x="880" y="570" width="78" height="78" as="geometry" />
        </mxCell>
        <mxCell id="_9D6LDGhKCKMPMUo-ash-31" style="edgeStyle=orthogonalEdgeStyle;rounded=0;orthogonalLoop=1;jettySize=auto;html=1;entryX=0;entryY=0.5;entryDx=0;entryDy=0;entryPerimeter=0;fontColor=default;" parent="_9D6LDGhKCKMPMUo-ash-8" source="_9D6LDGhKCKMPMUo-ash-32" target="_9D6LDGhKCKMPMUo-ash-30" edge="1">
          <mxGeometry relative="1" as="geometry" />
        </mxCell>
        <mxCell id="_9D6LDGhKCKMPMUo-ash-32" value="" style="sketch=0;points=[[0,0,0],[0.25,0,0],[0.5,0,0],[0.75,0,0],[1,0,0],[0,1,0],[0.25,1,0],[0.5,1,0],[0.75,1,0],[1,1,0],[0,0.25,0],[0,0.5,0],[0,0.75,0],[1,0.25,0],[1,0.5,0],[1,0.75,0]];outlineConnect=0;fontColor=#232F3E;gradientColor=#F78E04;gradientDirection=north;fillColor=#D05C17;strokeColor=#ffffff;dashed=0;verticalLabelPosition=bottom;verticalAlign=top;align=center;html=1;fontSize=12;fontStyle=0;aspect=fixed;shape=mxgraph.aws4.resourceIcon;resIcon=mxgraph.aws4.auto_scaling3;labelBackgroundColor=none;" parent="_9D6LDGhKCKMPMUo-ash-8" vertex="1">
          <mxGeometry x="700" y="570" width="78" height="78" as="geometry" />
        </mxCell>
        <mxCell id="_9D6LDGhKCKMPMUo-ash-33" value="User Service" style="text;html=1;strokeColor=none;fillColor=none;align=center;verticalAlign=middle;whiteSpace=wrap;rounded=0;fontColor=default;" parent="_9D6LDGhKCKMPMUo-ash-8" vertex="1">
          <mxGeometry x="889" y="108" width="60" height="30" as="geometry" />
        </mxCell>
        <mxCell id="_9D6LDGhKCKMPMUo-ash-34" value="Catalog Service" style="text;html=1;strokeColor=none;fillColor=none;align=center;verticalAlign=middle;whiteSpace=wrap;rounded=0;fontColor=default;" parent="_9D6LDGhKCKMPMUo-ash-8" vertex="1">
          <mxGeometry x="889" y="238" width="60" height="30" as="geometry" />
        </mxCell>
        <mxCell id="_9D6LDGhKCKMPMUo-ash-36" value="Order Service" style="text;html=1;strokeColor=none;fillColor=none;align=center;verticalAlign=middle;whiteSpace=wrap;rounded=0;fontColor=default;" parent="_9D6LDGhKCKMPMUo-ash-8" vertex="1">
          <mxGeometry x="889" y="358" width="60" height="30" as="geometry" />
        </mxCell>
        <mxCell id="_9D6LDGhKCKMPMUo-ash-37" value="Payment Service" style="text;html=1;strokeColor=none;fillColor=none;align=center;verticalAlign=middle;whiteSpace=wrap;rounded=0;fontColor=default;" parent="_9D6LDGhKCKMPMUo-ash-8" vertex="1">
          <mxGeometry x="889" y="648" width="60" height="30" as="geometry" />
        </mxCell>
        <mxCell id="_9D6LDGhKCKMPMUo-ash-38" style="edgeStyle=orthogonalEdgeStyle;rounded=0;orthogonalLoop=1;jettySize=auto;html=1;fontColor=default;" parent="_9D6LDGhKCKMPMUo-ash-8" target="_9D6LDGhKCKMPMUo-ash-12" edge="1">
          <mxGeometry relative="1" as="geometry">
            <mxPoint x="110" y="220" as="sourcePoint" />
            <mxPoint x="170.21000000000004" y="73.96000000000004" as="targetPoint" />
          </mxGeometry>
        </mxCell>
        <mxCell id="_9D6LDGhKCKMPMUo-ash-39" value="" style="sketch=0;points=[[0,0,0],[0.25,0,0],[0.5,0,0],[0.75,0,0],[1,0,0],[0,1,0],[0.25,1,0],[0.5,1,0],[0.75,1,0],[1,1,0],[0,0.25,0],[0,0.5,0],[0,0.75,0],[1,0.25,0],[1,0.5,0],[1,0.75,0]];outlineConnect=0;fontColor=#232F3E;gradientColor=#FF4F8B;gradientDirection=north;fillColor=#BC1356;strokeColor=#ffffff;dashed=0;verticalLabelPosition=bottom;verticalAlign=top;align=center;html=1;fontSize=12;fontStyle=0;aspect=fixed;shape=mxgraph.aws4.resourceIcon;resIcon=mxgraph.aws4.mobile_application;labelBackgroundColor=none;" parent="_9D6LDGhKCKMPMUo-ash-8" vertex="1">
          <mxGeometry x="30" y="180" width="78" height="78" as="geometry" />
        </mxCell>
        <mxCell id="_9D6LDGhKCKMPMUo-ash-40" style="edgeStyle=orthogonalEdgeStyle;rounded=0;orthogonalLoop=1;jettySize=auto;html=1;fontColor=default;" parent="_9D6LDGhKCKMPMUo-ash-8" source="_9D6LDGhKCKMPMUo-ash-41" target="_9D6LDGhKCKMPMUo-ash-12" edge="1">
          <mxGeometry relative="1" as="geometry" />
        </mxCell>
        <mxCell id="_9D6LDGhKCKMPMUo-ash-41" value="" style="sketch=0;points=[[0,0,0],[0.25,0,0],[0.5,0,0],[0.75,0,0],[1,0,0],[0,1,0],[0.25,1,0],[0.5,1,0],[0.75,1,0],[1,1,0],[0,0.25,0],[0,0.5,0],[0,0.75,0],[1,0.25,0],[1,0.5,0],[1,0.75,0]];outlineConnect=0;fontColor=#232F3E;gradientColor=#FF4F8B;gradientDirection=north;fillColor=#BC1356;strokeColor=#ffffff;dashed=0;verticalLabelPosition=bottom;verticalAlign=top;align=center;html=1;fontSize=12;fontStyle=0;aspect=fixed;shape=mxgraph.aws4.resourceIcon;resIcon=mxgraph.aws4.mobile_application;labelBackgroundColor=none;" parent="_9D6LDGhKCKMPMUo-ash-8" vertex="1">
          <mxGeometry x="30" y="346" width="78" height="78" as="geometry" />
        </mxCell>
        <mxCell id="_9D6LDGhKCKMPMUo-ash-42" value="Admin" style="text;html=1;strokeColor=none;fillColor=none;align=center;verticalAlign=middle;whiteSpace=wrap;rounded=0;fontColor=default;" parent="_9D6LDGhKCKMPMUo-ash-8" vertex="1">
          <mxGeometry x="39" y="268" width="60" height="30" as="geometry" />
        </mxCell>
        <mxCell id="_9D6LDGhKCKMPMUo-ash-43" value="User" style="text;html=1;strokeColor=none;fillColor=none;align=center;verticalAlign=middle;whiteSpace=wrap;rounded=0;fontColor=default;" parent="_9D6LDGhKCKMPMUo-ash-8" vertex="1">
          <mxGeometry x="39" y="430" width="60" height="30" as="geometry" />
        </mxCell>
        <mxCell id="_9D6LDGhKCKMPMUo-ash-44" value="" style="image;html=1;image=img/lib/clip_art/computers/Database_128x128.png;labelBackgroundColor=none;fontColor=default;fillColor=none;" parent="_9D6LDGhKCKMPMUo-ash-8" vertex="1">
          <mxGeometry x="1080" y="28" width="80" height="80" as="geometry" />
        </mxCell>
        <mxCell id="_9D6LDGhKCKMPMUo-ash-45" value="" style="image;html=1;image=img/lib/clip_art/computers/Database_128x128.png;labelBackgroundColor=none;fontColor=default;fillColor=none;" parent="_9D6LDGhKCKMPMUo-ash-8" vertex="1">
          <mxGeometry x="1080" y="160" width="80" height="80" as="geometry" />
        </mxCell>
        <mxCell id="_9D6LDGhKCKMPMUo-ash-46" value="" style="image;html=1;image=img/lib/clip_art/computers/Database_128x128.png;labelBackgroundColor=none;fontColor=default;fillColor=none;" parent="_9D6LDGhKCKMPMUo-ash-8" vertex="1">
          <mxGeometry x="1090" y="298" width="80" height="80" as="geometry" />
        </mxCell>
        <mxCell id="_9D6LDGhKCKMPMUo-ash-47" value="" style="image;html=1;image=img/lib/clip_art/computers/Database_128x128.png;labelBackgroundColor=none;fontColor=default;fillColor=none;" parent="_9D6LDGhKCKMPMUo-ash-8" vertex="1">
          <mxGeometry x="1080" y="570" width="80" height="80" as="geometry" />
        </mxCell>
        <mxCell id="_9D6LDGhKCKMPMUo-ash-48" style="edgeStyle=orthogonalEdgeStyle;rounded=0;orthogonalLoop=1;jettySize=auto;html=1;entryX=1;entryY=0.5;entryDx=0;entryDy=0;" parent="_9D6LDGhKCKMPMUo-ash-8" source="_9D6LDGhKCKMPMUo-ash-49" target="_9D6LDGhKCKMPMUo-ash-45" edge="1">
          <mxGeometry relative="1" as="geometry" />
        </mxCell>
        <mxCell id="_9D6LDGhKCKMPMUo-ash-49" value="" style="sketch=0;points=[[0,0,0],[0.25,0,0],[0.5,0,0],[0.75,0,0],[1,0,0],[0,1,0],[0.25,1,0],[0.5,1,0],[0.75,1,0],[1,1,0],[0,0.25,0],[0,0.5,0],[0,0.75,0],[1,0.25,0],[1,0.5,0],[1,0.75,0]];outlineConnect=0;fontColor=#232F3E;gradientColor=#F78E04;gradientDirection=north;fillColor=#D05C17;strokeColor=#ffffff;dashed=0;verticalLabelPosition=bottom;verticalAlign=top;align=center;html=1;fontSize=12;fontStyle=0;aspect=fixed;shape=mxgraph.aws4.resourceIcon;resIcon=mxgraph.aws4.compute;labelBackgroundColor=none;" parent="_9D6LDGhKCKMPMUo-ash-8" vertex="1">
          <mxGeometry x="1390" y="160" width="78" height="78" as="geometry" />
        </mxCell>
        <mxCell id="_9D6LDGhKCKMPMUo-ash-50" value="Inventory Management" style="text;html=1;strokeColor=none;fillColor=none;align=center;verticalAlign=middle;whiteSpace=wrap;rounded=0;fontColor=default;" parent="_9D6LDGhKCKMPMUo-ash-8" vertex="1">
          <mxGeometry x="1319" y="250" width="60" height="30" as="geometry" />
        </mxCell>
        <mxCell id="_9D6LDGhKCKMPMUo-ash-51" style="edgeStyle=orthogonalEdgeStyle;rounded=0;orthogonalLoop=1;jettySize=auto;html=1;entryX=0;entryY=0.5;entryDx=0;entryDy=0;entryPerimeter=0;fontColor=default;" parent="_9D6LDGhKCKMPMUo-ash-8" source="_9D6LDGhKCKMPMUo-ash-58" target="_9D6LDGhKCKMPMUo-ash-55" edge="1">
          <mxGeometry relative="1" as="geometry">
            <mxPoint x="529" y="772" as="sourcePoint" />
          </mxGeometry>
        </mxCell>
        <mxCell id="_9D6LDGhKCKMPMUo-ash-52" style="edgeStyle=orthogonalEdgeStyle;rounded=0;orthogonalLoop=1;jettySize=auto;html=1;" parent="_9D6LDGhKCKMPMUo-ash-8" source="_9D6LDGhKCKMPMUo-ash-53" target="_9D6LDGhKCKMPMUo-ash-56" edge="1">
          <mxGeometry relative="1" as="geometry" />
        </mxCell>
        <mxCell id="_9D6LDGhKCKMPMUo-ash-53" value="" style="sketch=0;points=[[0,0,0],[0.25,0,0],[0.5,0,0],[0.75,0,0],[1,0,0],[0,1,0],[0.25,1,0],[0.5,1,0],[0.75,1,0],[1,1,0],[0,0.25,0],[0,0.5,0],[0,0.75,0],[1,0.25,0],[1,0.5,0],[1,0.75,0]];outlineConnect=0;fontColor=#232F3E;gradientColor=#F78E04;gradientDirection=north;fillColor=#D05C17;strokeColor=#ffffff;dashed=0;verticalLabelPosition=bottom;verticalAlign=top;align=center;html=1;fontSize=12;fontStyle=0;aspect=fixed;shape=mxgraph.aws4.resourceIcon;resIcon=mxgraph.aws4.compute;labelBackgroundColor=none;" parent="_9D6LDGhKCKMPMUo-ash-8" vertex="1">
          <mxGeometry x="870" y="730" width="78" height="78" as="geometry" />
        </mxCell>
        <mxCell id="_9D6LDGhKCKMPMUo-ash-54" style="edgeStyle=orthogonalEdgeStyle;rounded=0;orthogonalLoop=1;jettySize=auto;html=1;entryX=0;entryY=0.5;entryDx=0;entryDy=0;entryPerimeter=0;fontColor=default;" parent="_9D6LDGhKCKMPMUo-ash-8" source="_9D6LDGhKCKMPMUo-ash-55" target="_9D6LDGhKCKMPMUo-ash-53" edge="1">
          <mxGeometry relative="1" as="geometry" />
        </mxCell>
        <mxCell id="_9D6LDGhKCKMPMUo-ash-55" value="" style="sketch=0;points=[[0,0,0],[0.25,0,0],[0.5,0,0],[0.75,0,0],[1,0,0],[0,1,0],[0.25,1,0],[0.5,1,0],[0.75,1,0],[1,1,0],[0,0.25,0],[0,0.5,0],[0,0.75,0],[1,0.25,0],[1,0.5,0],[1,0.75,0]];outlineConnect=0;fontColor=#232F3E;gradientColor=#F78E04;gradientDirection=north;fillColor=#D05C17;strokeColor=#ffffff;dashed=0;verticalLabelPosition=bottom;verticalAlign=top;align=center;html=1;fontSize=12;fontStyle=0;aspect=fixed;shape=mxgraph.aws4.resourceIcon;resIcon=mxgraph.aws4.auto_scaling3;labelBackgroundColor=none;" parent="_9D6LDGhKCKMPMUo-ash-8" vertex="1">
          <mxGeometry x="690" y="732" width="78" height="78" as="geometry" />
        </mxCell>
        <mxCell id="_9D6LDGhKCKMPMUo-ash-56" value="" style="image;html=1;image=img/lib/clip_art/computers/Database_128x128.png;labelBackgroundColor=none;fontColor=default;fillColor=none;" parent="_9D6LDGhKCKMPMUo-ash-8" vertex="1">
          <mxGeometry x="1070" y="730" width="80" height="80" as="geometry" />
        </mxCell>
        <mxCell id="_9D6LDGhKCKMPMUo-ash-57" value="Promotion Service" style="text;html=1;strokeColor=none;fillColor=none;align=center;verticalAlign=middle;whiteSpace=wrap;rounded=0;fontColor=default;" parent="_9D6LDGhKCKMPMUo-ash-8" vertex="1">
          <mxGeometry x="859" y="814" width="60" height="30" as="geometry" />
        </mxCell>
        <mxCell id="_9D6LDGhKCKMPMUo-ash-58" value="" style="outlineConnect=0;dashed=0;verticalLabelPosition=bottom;verticalAlign=top;align=center;html=1;shape=mxgraph.aws3.application_load_balancer;fillColor=#F58534;gradientColor=none;labelBackgroundColor=none;fontColor=default;" parent="_9D6LDGhKCKMPMUo-ash-8" vertex="1">
          <mxGeometry x="500" y="734" width="69" height="72" as="geometry" />
        </mxCell>
        <mxCell id="_e1euGYEIjmJxFCFogni-1" value="" style="sketch=0;points=[[0,0,0],[0.25,0,0],[0.5,0,0],[0.75,0,0],[1,0,0],[0,1,0],[0.25,1,0],[0.5,1,0],[0.75,1,0],[1,1,0],[0,0.25,0],[0,0.5,0],[0,0.75,0],[1,0.25,0],[1,0.5,0],[1,0.75,0]];outlineConnect=0;fontColor=#232F3E;gradientColor=#FF4F8B;gradientDirection=north;fillColor=#BC1356;strokeColor=#ffffff;dashed=0;verticalLabelPosition=bottom;verticalAlign=top;align=center;html=1;fontSize=12;fontStyle=0;aspect=fixed;shape=mxgraph.aws4.resourceIcon;resIcon=mxgraph.aws4.sqs;" parent="_9D6LDGhKCKMPMUo-ash-8" vertex="1">
          <mxGeometry x="690" y="400" width="120" height="120" as="geometry" />
        </mxCell>
        <mxCell id="_e1euGYEIjmJxFCFogni-5" value="&lt;h1&gt;&lt;br&gt;&lt;/h1&gt;&lt;div&gt;1. Purchase Event&lt;/div&gt;&lt;div&gt;2. Purchase Fail&lt;/div&gt;&lt;div&gt;3. Purchase success&lt;/div&gt;&lt;div&gt;4. Order Placed event&lt;/div&gt;&lt;div&gt;5. Order Failure&lt;/div&gt;" style="text;html=1;strokeColor=none;fillColor=none;spacing=5;spacingTop=-20;whiteSpace=wrap;overflow=hidden;rounded=0;" parent="_9D6LDGhKCKMPMUo-ash-8" vertex="1">
          <mxGeometry x="550" y="388" width="190" height="120" as="geometry" />
        </mxCell>
        <mxCell id="_e1euGYEIjmJxFCFogni-6" value="CDC&lt;br&gt;Change data Capture" style="rhombus;whiteSpace=wrap;html=1;" parent="_9D6LDGhKCKMPMUo-ash-8" vertex="1">
          <mxGeometry x="970" y="420" width="100" height="90" as="geometry" />
        </mxCell>
        <mxCell id="_9D6LDGhKCKMPMUo-ash-61" style="edgeStyle=orthogonalEdgeStyle;rounded=0;orthogonalLoop=1;jettySize=auto;html=1;entryX=0;entryY=0.5;entryDx=0;entryDy=0;entryPerimeter=0;fontColor=default;" parent="_9D6LDGhKCKMPMUo-ash-1" source="_9D6LDGhKCKMPMUo-ash-12" target="_9D6LDGhKCKMPMUo-ash-5" edge="1">
          <mxGeometry relative="1" as="geometry">
            <Array as="points">
              <mxPoint x="440" y="325" />
              <mxPoint x="440" y="110" />
            </Array>
          </mxGeometry>
        </mxCell>
        <mxCell id="_9D6LDGhKCKMPMUo-ash-62" value="External Services" style="fillColor=none;strokeColor=#5A6C86;dashed=1;verticalAlign=top;fontStyle=0;fontColor=#5A6C86;whiteSpace=wrap;html=1;" parent="_9D6LDGhKCKMPMUo-ash-1" vertex="1">
          <mxGeometry x="1550" y="40" width="180" height="890" as="geometry" />
        </mxCell>
        <mxCell id="_9D6LDGhKCKMPMUo-ash-63" value="Payment Gateway" style="shape=cube;whiteSpace=wrap;html=1;boundedLbl=1;backgroundOutline=1;darkOpacity=0.05;darkOpacity2=0.1;" parent="_9D6LDGhKCKMPMUo-ash-1" vertex="1">
          <mxGeometry x="1590" y="700" width="120" height="80" as="geometry" />
        </mxCell>
        <mxCell id="_9D6LDGhKCKMPMUo-ash-64" style="edgeStyle=orthogonalEdgeStyle;rounded=0;orthogonalLoop=1;jettySize=auto;html=1;entryX=0;entryY=0;entryDx=0;entryDy=30;entryPerimeter=0;" parent="_9D6LDGhKCKMPMUo-ash-1" source="_9D6LDGhKCKMPMUo-ash-37" target="_9D6LDGhKCKMPMUo-ash-63" edge="1">
          <mxGeometry relative="1" as="geometry">
            <Array as="points">
              <mxPoint x="929" y="730" />
              <mxPoint x="1590" y="730" />
            </Array>
          </mxGeometry>
        </mxCell>
        <mxCell id="_9D6LDGhKCKMPMUo-ash-65" value="Google / Facebook&lt;br&gt;Login" style="shape=cube;whiteSpace=wrap;html=1;boundedLbl=1;backgroundOutline=1;darkOpacity=0.05;darkOpacity2=0.1;" parent="_9D6LDGhKCKMPMUo-ash-1" vertex="1">
          <mxGeometry x="1590" y="74" width="120" height="80" as="geometry" />
        </mxCell>
        <mxCell id="_9D6LDGhKCKMPMUo-ash-66" style="edgeStyle=orthogonalEdgeStyle;rounded=0;orthogonalLoop=1;jettySize=auto;html=1;" parent="_9D6LDGhKCKMPMUo-ash-1" source="_9D6LDGhKCKMPMUo-ash-15" target="_9D6LDGhKCKMPMUo-ash-65" edge="1">
          <mxGeometry relative="1" as="geometry">
            <Array as="points">
              <mxPoint x="929" y="180" />
              <mxPoint x="1560" y="180" />
              <mxPoint x="1560" y="114" />
            </Array>
          </mxGeometry>
        </mxCell>
        <mxCell id="soU7oWtKICPuD66eWv3p-0" value="Queue" style="text;html=1;align=center;verticalAlign=middle;resizable=0;points=[];autosize=1;strokeColor=none;fillColor=none;" parent="_9D6LDGhKCKMPMUo-ash-1" vertex="1">
          <mxGeometry x="720" y="558" width="60" height="30" as="geometry" />
        </mxCell>
      </root>
    </mxGraphModel>
  </diagram>
  <diagram name="L4(Sunny-1-5-23)" id="lSYMgCUsqRniUm0CrCmW">
    <mxGraphModel dx="954" dy="529" grid="1" gridSize="10" guides="1" tooltips="1" connect="1" arrows="1" fold="1" page="1" pageScale="1" pageWidth="2400" pageHeight="4800" math="0" shadow="0">
      <root>
        <mxCell id="zAa8W5VV-ybh0DgIGJgr-0" />
        <mxCell id="zAa8W5VV-ybh0DgIGJgr-1" parent="zAa8W5VV-ybh0DgIGJgr-0" />
        <mxCell id="zAa8W5VV-ybh0DgIGJgr-2" style="edgeStyle=orthogonalEdgeStyle;rounded=0;orthogonalLoop=1;jettySize=auto;html=1;fontColor=default;" parent="zAa8W5VV-ybh0DgIGJgr-1" source="zAa8W5VV-ybh0DgIGJgr-12" target="zAa8W5VV-ybh0DgIGJgr-6" edge="1">
          <mxGeometry relative="1" as="geometry">
            <Array as="points">
              <mxPoint x="440" y="307" />
              <mxPoint x="440" y="218" />
            </Array>
          </mxGeometry>
        </mxCell>
        <mxCell id="zAa8W5VV-ybh0DgIGJgr-3" style="edgeStyle=orthogonalEdgeStyle;rounded=0;orthogonalLoop=1;jettySize=auto;html=1;entryX=0;entryY=0.5;entryDx=0;entryDy=0;entryPerimeter=0;fontColor=default;" parent="zAa8W5VV-ybh0DgIGJgr-1" source="zAa8W5VV-ybh0DgIGJgr-12" target="zAa8W5VV-ybh0DgIGJgr-7" edge="1">
          <mxGeometry relative="1" as="geometry">
            <Array as="points">
              <mxPoint x="440" y="325" />
              <mxPoint x="440" y="366" />
            </Array>
          </mxGeometry>
        </mxCell>
        <mxCell id="zAa8W5VV-ybh0DgIGJgr-4" style="edgeStyle=orthogonalEdgeStyle;rounded=0;orthogonalLoop=1;jettySize=auto;html=1;entryX=0;entryY=0.5;entryDx=0;entryDy=0;entryPerimeter=0;fontColor=default;" parent="zAa8W5VV-ybh0DgIGJgr-1" source="zAa8W5VV-ybh0DgIGJgr-5" target="zAa8W5VV-ybh0DgIGJgr-16" edge="1">
          <mxGeometry relative="1" as="geometry" />
        </mxCell>
        <mxCell id="zAa8W5VV-ybh0DgIGJgr-5" value="" style="outlineConnect=0;dashed=0;verticalLabelPosition=bottom;verticalAlign=top;align=center;html=1;shape=mxgraph.aws3.application_load_balancer;fillColor=#F58534;gradientColor=none;labelBackgroundColor=none;fontColor=default;" parent="zAa8W5VV-ybh0DgIGJgr-1" vertex="1">
          <mxGeometry x="520" y="74" width="69" height="72" as="geometry" />
        </mxCell>
        <mxCell id="zAa8W5VV-ybh0DgIGJgr-6" value="" style="outlineConnect=0;dashed=0;verticalLabelPosition=bottom;verticalAlign=top;align=center;html=1;shape=mxgraph.aws3.application_load_balancer;fillColor=#F58534;gradientColor=none;labelBackgroundColor=none;fontColor=default;" parent="zAa8W5VV-ybh0DgIGJgr-1" vertex="1">
          <mxGeometry x="520" y="182" width="69" height="72" as="geometry" />
        </mxCell>
        <mxCell id="zAa8W5VV-ybh0DgIGJgr-7" value="" style="outlineConnect=0;dashed=0;verticalLabelPosition=bottom;verticalAlign=top;align=center;html=1;shape=mxgraph.aws3.application_load_balancer;fillColor=#F58534;gradientColor=none;labelBackgroundColor=none;fontColor=default;" parent="zAa8W5VV-ybh0DgIGJgr-1" vertex="1">
          <mxGeometry x="520" y="330" width="69" height="72" as="geometry" />
        </mxCell>
        <mxCell id="zAa8W5VV-ybh0DgIGJgr-8" value="AWS Cloud" style="points=[[0,0],[0.25,0],[0.5,0],[0.75,0],[1,0],[1,0.25],[1,0.5],[1,0.75],[1,1],[0.75,1],[0.5,1],[0.25,1],[0,1],[0,0.75],[0,0.5],[0,0.25]];outlineConnect=0;gradientColor=none;html=1;whiteSpace=wrap;fontSize=17;fontStyle=0;container=1;pointerEvents=0;collapsible=0;recursiveResize=0;shape=mxgraph.aws4.group;grIcon=mxgraph.aws4.group_aws_cloud_alt;strokeColor=#232F3E;fillColor=none;verticalAlign=top;align=left;spacingLeft=30;fontColor=#232F3E;dashed=0;labelBackgroundColor=none;" parent="zAa8W5VV-ybh0DgIGJgr-1" vertex="1">
          <mxGeometry x="10" y="22" width="1530" height="890" as="geometry" />
        </mxCell>
        <mxCell id="zAa8W5VV-ybh0DgIGJgr-9" value="" style="outlineConnect=0;dashed=0;verticalLabelPosition=bottom;verticalAlign=top;align=center;html=1;shape=mxgraph.aws3.application_load_balancer;fillColor=#F58534;gradientColor=none;labelBackgroundColor=none;fontColor=default;" parent="zAa8W5VV-ybh0DgIGJgr-8" vertex="1">
          <mxGeometry x="510" y="576" width="69" height="72" as="geometry" />
        </mxCell>
        <mxCell id="zAa8W5VV-ybh0DgIGJgr-10" style="edgeStyle=orthogonalEdgeStyle;rounded=0;orthogonalLoop=1;jettySize=auto;html=1;entryX=0;entryY=0.5;entryDx=0;entryDy=0;entryPerimeter=0;" parent="zAa8W5VV-ybh0DgIGJgr-8" source="zAa8W5VV-ybh0DgIGJgr-12" target="zAa8W5VV-ybh0DgIGJgr-60" edge="1">
          <mxGeometry relative="1" as="geometry">
            <Array as="points">
              <mxPoint x="430" y="285" />
              <mxPoint x="430" y="770" />
            </Array>
          </mxGeometry>
        </mxCell>
        <mxCell id="zAa8W5VV-ybh0DgIGJgr-11" value="Text" style="edgeLabel;html=1;align=center;verticalAlign=middle;resizable=0;points=[];" parent="zAa8W5VV-ybh0DgIGJgr-10" vertex="1" connectable="0">
          <mxGeometry x="0.1507" relative="1" as="geometry">
            <mxPoint y="146" as="offset" />
          </mxGeometry>
        </mxCell>
        <mxCell id="zAa8W5VV-ybh0DgIGJgr-12" value="" style="sketch=0;points=[[0,0,0],[0.25,0,0],[0.5,0,0],[0.75,0,0],[1,0,0],[0,1,0],[0.25,1,0],[0.5,1,0],[0.75,1,0],[1,1,0],[0,0.25,0],[0,0.5,0],[0,0.75,0],[1,0.25,0],[1,0.5,0],[1,0.75,0]];outlineConnect=0;fontColor=#232F3E;gradientColor=#945DF2;gradientDirection=north;fillColor=#5A30B5;strokeColor=#ffffff;dashed=0;verticalLabelPosition=bottom;verticalAlign=top;align=center;html=1;fontSize=12;fontStyle=0;aspect=fixed;shape=mxgraph.aws4.resourceIcon;resIcon=mxgraph.aws4.api_gateway;labelBackgroundColor=none;" parent="zAa8W5VV-ybh0DgIGJgr-8" vertex="1">
          <mxGeometry x="170" y="200" width="170" height="170" as="geometry" />
        </mxCell>
        <mxCell id="zAa8W5VV-ybh0DgIGJgr-13" style="edgeStyle=orthogonalEdgeStyle;rounded=0;orthogonalLoop=1;jettySize=auto;html=1;fontColor=default;" parent="zAa8W5VV-ybh0DgIGJgr-8" source="zAa8W5VV-ybh0DgIGJgr-14" target="zAa8W5VV-ybh0DgIGJgr-46" edge="1">
          <mxGeometry relative="1" as="geometry" />
        </mxCell>
        <mxCell id="zAa8W5VV-ybh0DgIGJgr-15" style="edgeStyle=orthogonalEdgeStyle;rounded=0;orthogonalLoop=1;jettySize=auto;html=1;entryX=0;entryY=0.5;entryDx=0;entryDy=0;entryPerimeter=0;fontColor=default;" parent="zAa8W5VV-ybh0DgIGJgr-8" source="zAa8W5VV-ybh0DgIGJgr-16" target="zAa8W5VV-ybh0DgIGJgr-14" edge="1">
          <mxGeometry relative="1" as="geometry" />
        </mxCell>
        <mxCell id="zAa8W5VV-ybh0DgIGJgr-16" value="" style="sketch=0;points=[[0,0,0],[0.25,0,0],[0.5,0,0],[0.75,0,0],[1,0,0],[0,1,0],[0.25,1,0],[0.5,1,0],[0.75,1,0],[1,1,0],[0,0.25,0],[0,0.5,0],[0,0.75,0],[1,0.25,0],[1,0.5,0],[1,0.75,0]];outlineConnect=0;fontColor=#232F3E;gradientColor=#F78E04;gradientDirection=north;fillColor=#D05C17;strokeColor=#ffffff;dashed=0;verticalLabelPosition=bottom;verticalAlign=top;align=center;html=1;fontSize=12;fontStyle=0;aspect=fixed;shape=mxgraph.aws4.resourceIcon;resIcon=mxgraph.aws4.auto_scaling3;labelBackgroundColor=none;" parent="zAa8W5VV-ybh0DgIGJgr-8" vertex="1">
          <mxGeometry x="700" y="30" width="78" height="78" as="geometry" />
        </mxCell>
        <mxCell id="zAa8W5VV-ybh0DgIGJgr-17" style="edgeStyle=orthogonalEdgeStyle;rounded=0;orthogonalLoop=1;jettySize=auto;html=1;entryX=0;entryY=0.5;entryDx=0;entryDy=0;entryPerimeter=0;fontColor=default;" parent="zAa8W5VV-ybh0DgIGJgr-8" target="zAa8W5VV-ybh0DgIGJgr-21" edge="1">
          <mxGeometry relative="1" as="geometry">
            <mxPoint x="559" y="200" as="sourcePoint" />
          </mxGeometry>
        </mxCell>
        <mxCell id="zAa8W5VV-ybh0DgIGJgr-18" style="edgeStyle=orthogonalEdgeStyle;rounded=0;orthogonalLoop=1;jettySize=auto;html=1;fontColor=default;" parent="zAa8W5VV-ybh0DgIGJgr-8" source="zAa8W5VV-ybh0DgIGJgr-19" target="zAa8W5VV-ybh0DgIGJgr-47" edge="1">
          <mxGeometry relative="1" as="geometry" />
        </mxCell>
        <mxCell id="zAa8W5VV-ybh0DgIGJgr-20" style="edgeStyle=orthogonalEdgeStyle;rounded=0;orthogonalLoop=1;jettySize=auto;html=1;entryX=0;entryY=0.5;entryDx=0;entryDy=0;entryPerimeter=0;fontColor=default;" parent="zAa8W5VV-ybh0DgIGJgr-8" source="zAa8W5VV-ybh0DgIGJgr-21" target="zAa8W5VV-ybh0DgIGJgr-19" edge="1">
          <mxGeometry relative="1" as="geometry" />
        </mxCell>
        <mxCell id="zAa8W5VV-ybh0DgIGJgr-21" value="" style="sketch=0;points=[[0,0,0],[0.25,0,0],[0.5,0,0],[0.75,0,0],[1,0,0],[0,1,0],[0.25,1,0],[0.5,1,0],[0.75,1,0],[1,1,0],[0,0.25,0],[0,0.5,0],[0,0.75,0],[1,0.25,0],[1,0.5,0],[1,0.75,0]];outlineConnect=0;fontColor=#232F3E;gradientColor=#F78E04;gradientDirection=north;fillColor=#D05C17;strokeColor=#ffffff;dashed=0;verticalLabelPosition=bottom;verticalAlign=top;align=center;html=1;fontSize=12;fontStyle=0;aspect=fixed;shape=mxgraph.aws4.resourceIcon;resIcon=mxgraph.aws4.auto_scaling3;labelBackgroundColor=none;" parent="zAa8W5VV-ybh0DgIGJgr-8" vertex="1">
          <mxGeometry x="700" y="160" width="78" height="78" as="geometry" />
        </mxCell>
        <mxCell id="zAa8W5VV-ybh0DgIGJgr-22" style="edgeStyle=orthogonalEdgeStyle;rounded=0;orthogonalLoop=1;jettySize=auto;html=1;entryX=0;entryY=0.5;entryDx=0;entryDy=0;entryPerimeter=0;fontColor=default;" parent="zAa8W5VV-ybh0DgIGJgr-8" target="zAa8W5VV-ybh0DgIGJgr-28" edge="1">
          <mxGeometry relative="1" as="geometry">
            <mxPoint x="559" y="320" as="sourcePoint" />
          </mxGeometry>
        </mxCell>
        <mxCell id="zAa8W5VV-ybh0DgIGJgr-23" style="edgeStyle=orthogonalEdgeStyle;rounded=0;orthogonalLoop=1;jettySize=auto;html=1;entryX=0;entryY=0.25;entryDx=0;entryDy=0;fontColor=default;" parent="zAa8W5VV-ybh0DgIGJgr-8" source="zAa8W5VV-ybh0DgIGJgr-26" target="zAa8W5VV-ybh0DgIGJgr-48" edge="1">
          <mxGeometry relative="1" as="geometry">
            <Array as="points">
              <mxPoint x="1080" y="319" />
            </Array>
          </mxGeometry>
        </mxCell>
        <mxCell id="zAa8W5VV-ybh0DgIGJgr-24" style="edgeStyle=orthogonalEdgeStyle;rounded=0;orthogonalLoop=1;jettySize=auto;html=1;entryX=1;entryY=0.5;entryDx=0;entryDy=0;entryPerimeter=0;exitX=0;exitY=0.5;exitDx=0;exitDy=0;" parent="zAa8W5VV-ybh0DgIGJgr-8" source="zAa8W5VV-ybh0DgIGJgr-63" target="zAa8W5VV-ybh0DgIGJgr-61" edge="1">
          <mxGeometry relative="1" as="geometry">
            <Array as="points">
              <mxPoint x="919" y="465" />
              <mxPoint x="919" y="460" />
            </Array>
          </mxGeometry>
        </mxCell>
        <mxCell id="zAa8W5VV-ybh0DgIGJgr-25" style="edgeStyle=orthogonalEdgeStyle;rounded=0;orthogonalLoop=1;jettySize=auto;html=1;entryX=0.5;entryY=0;entryDx=0;entryDy=0;" parent="zAa8W5VV-ybh0DgIGJgr-8" source="zAa8W5VV-ybh0DgIGJgr-26" target="zAa8W5VV-ybh0DgIGJgr-63" edge="1">
          <mxGeometry relative="1" as="geometry" />
        </mxCell>
        <mxCell id="zAa8W5VV-ybh0DgIGJgr-27" style="edgeStyle=orthogonalEdgeStyle;rounded=0;orthogonalLoop=1;jettySize=auto;html=1;entryX=0;entryY=0.5;entryDx=0;entryDy=0;entryPerimeter=0;fontColor=default;" parent="zAa8W5VV-ybh0DgIGJgr-8" source="zAa8W5VV-ybh0DgIGJgr-28" target="zAa8W5VV-ybh0DgIGJgr-26" edge="1">
          <mxGeometry relative="1" as="geometry" />
        </mxCell>
        <mxCell id="zAa8W5VV-ybh0DgIGJgr-28" value="" style="sketch=0;points=[[0,0,0],[0.25,0,0],[0.5,0,0],[0.75,0,0],[1,0,0],[0,1,0],[0.25,1,0],[0.5,1,0],[0.75,1,0],[1,1,0],[0,0.25,0],[0,0.5,0],[0,0.75,0],[1,0.25,0],[1,0.5,0],[1,0.75,0]];outlineConnect=0;fontColor=#232F3E;gradientColor=#F78E04;gradientDirection=north;fillColor=#D05C17;strokeColor=#ffffff;dashed=0;verticalLabelPosition=bottom;verticalAlign=top;align=center;html=1;fontSize=12;fontStyle=0;aspect=fixed;shape=mxgraph.aws4.resourceIcon;resIcon=mxgraph.aws4.auto_scaling3;labelBackgroundColor=none;" parent="zAa8W5VV-ybh0DgIGJgr-8" vertex="1">
          <mxGeometry x="700" y="280" width="78" height="78" as="geometry" />
        </mxCell>
        <mxCell id="zAa8W5VV-ybh0DgIGJgr-29" style="edgeStyle=orthogonalEdgeStyle;rounded=0;orthogonalLoop=1;jettySize=auto;html=1;entryX=0;entryY=0.5;entryDx=0;entryDy=0;entryPerimeter=0;fontColor=default;" parent="zAa8W5VV-ybh0DgIGJgr-8" target="zAa8W5VV-ybh0DgIGJgr-35" edge="1">
          <mxGeometry relative="1" as="geometry">
            <mxPoint x="559" y="610" as="sourcePoint" />
          </mxGeometry>
        </mxCell>
        <mxCell id="zAa8W5VV-ybh0DgIGJgr-30" style="edgeStyle=orthogonalEdgeStyle;rounded=0;orthogonalLoop=1;jettySize=auto;html=1;entryX=0;entryY=0.5;entryDx=0;entryDy=0;fontColor=default;" parent="zAa8W5VV-ybh0DgIGJgr-8" source="zAa8W5VV-ybh0DgIGJgr-33" target="zAa8W5VV-ybh0DgIGJgr-49" edge="1">
          <mxGeometry relative="1" as="geometry" />
        </mxCell>
        <mxCell id="zAa8W5VV-ybh0DgIGJgr-31" style="edgeStyle=orthogonalEdgeStyle;rounded=0;orthogonalLoop=1;jettySize=auto;html=1;" parent="zAa8W5VV-ybh0DgIGJgr-8" source="zAa8W5VV-ybh0DgIGJgr-33" target="zAa8W5VV-ybh0DgIGJgr-61" edge="1">
          <mxGeometry relative="1" as="geometry">
            <Array as="points">
              <mxPoint x="919" y="490" />
            </Array>
          </mxGeometry>
        </mxCell>
        <mxCell id="zAa8W5VV-ybh0DgIGJgr-32" style="edgeStyle=orthogonalEdgeStyle;rounded=0;orthogonalLoop=1;jettySize=auto;html=1;entryX=0.5;entryY=1;entryDx=0;entryDy=0;" parent="zAa8W5VV-ybh0DgIGJgr-8" source="zAa8W5VV-ybh0DgIGJgr-33" target="zAa8W5VV-ybh0DgIGJgr-63" edge="1">
          <mxGeometry relative="1" as="geometry" />
        </mxCell>
        <mxCell id="zAa8W5VV-ybh0DgIGJgr-33" value="" style="sketch=0;points=[[0,0,0],[0.25,0,0],[0.5,0,0],[0.75,0,0],[1,0,0],[0,1,0],[0.25,1,0],[0.5,1,0],[0.75,1,0],[1,1,0],[0,0.25,0],[0,0.5,0],[0,0.75,0],[1,0.25,0],[1,0.5,0],[1,0.75,0]];outlineConnect=0;fontColor=#232F3E;gradientColor=#F78E04;gradientDirection=north;fillColor=#D05C17;strokeColor=#ffffff;dashed=0;verticalLabelPosition=bottom;verticalAlign=top;align=center;html=1;fontSize=12;fontStyle=0;aspect=fixed;shape=mxgraph.aws4.resourceIcon;resIcon=mxgraph.aws4.compute;labelBackgroundColor=none;" parent="zAa8W5VV-ybh0DgIGJgr-8" vertex="1">
          <mxGeometry x="880" y="570" width="78" height="78" as="geometry" />
        </mxCell>
        <mxCell id="zAa8W5VV-ybh0DgIGJgr-34" style="edgeStyle=orthogonalEdgeStyle;rounded=0;orthogonalLoop=1;jettySize=auto;html=1;fontColor=default;" parent="zAa8W5VV-ybh0DgIGJgr-8" source="zAa8W5VV-ybh0DgIGJgr-35" edge="1">
          <mxGeometry relative="1" as="geometry">
            <mxPoint x="880" y="618" as="targetPoint" />
          </mxGeometry>
        </mxCell>
        <mxCell id="zAa8W5VV-ybh0DgIGJgr-35" value="" style="sketch=0;points=[[0,0,0],[0.25,0,0],[0.5,0,0],[0.75,0,0],[1,0,0],[0,1,0],[0.25,1,0],[0.5,1,0],[0.75,1,0],[1,1,0],[0,0.25,0],[0,0.5,0],[0,0.75,0],[1,0.25,0],[1,0.5,0],[1,0.75,0]];outlineConnect=0;fontColor=#232F3E;gradientColor=#F78E04;gradientDirection=north;fillColor=#D05C17;strokeColor=#ffffff;dashed=0;verticalLabelPosition=bottom;verticalAlign=top;align=center;html=1;fontSize=12;fontStyle=0;aspect=fixed;shape=mxgraph.aws4.resourceIcon;resIcon=mxgraph.aws4.auto_scaling3;labelBackgroundColor=none;" parent="zAa8W5VV-ybh0DgIGJgr-8" vertex="1">
          <mxGeometry x="711" y="572" width="78" height="78" as="geometry" />
        </mxCell>
        <mxCell id="qgI-iGlP3_2ry2SQiDbS-21" style="edgeStyle=orthogonalEdgeStyle;rounded=0;orthogonalLoop=1;jettySize=auto;html=1;exitX=0.75;exitY=0;exitDx=0;exitDy=0;" parent="zAa8W5VV-ybh0DgIGJgr-8" source="zAa8W5VV-ybh0DgIGJgr-39" target="qgI-iGlP3_2ry2SQiDbS-17" edge="1">
          <mxGeometry relative="1" as="geometry" />
        </mxCell>
        <mxCell id="zAa8W5VV-ybh0DgIGJgr-39" value="Payment Service" style="text;html=1;strokeColor=none;fillColor=none;align=center;verticalAlign=middle;whiteSpace=wrap;rounded=0;fontColor=default;" parent="zAa8W5VV-ybh0DgIGJgr-8" vertex="1">
          <mxGeometry x="889" y="648" width="60" height="30" as="geometry" />
        </mxCell>
        <mxCell id="zAa8W5VV-ybh0DgIGJgr-40" style="edgeStyle=orthogonalEdgeStyle;rounded=0;orthogonalLoop=1;jettySize=auto;html=1;fontColor=default;" parent="zAa8W5VV-ybh0DgIGJgr-8" target="zAa8W5VV-ybh0DgIGJgr-12" edge="1">
          <mxGeometry relative="1" as="geometry">
            <mxPoint x="110" y="220" as="sourcePoint" />
            <mxPoint x="170.21000000000004" y="73.96000000000004" as="targetPoint" />
          </mxGeometry>
        </mxCell>
        <mxCell id="zAa8W5VV-ybh0DgIGJgr-41" value="" style="sketch=0;points=[[0,0,0],[0.25,0,0],[0.5,0,0],[0.75,0,0],[1,0,0],[0,1,0],[0.25,1,0],[0.5,1,0],[0.75,1,0],[1,1,0],[0,0.25,0],[0,0.5,0],[0,0.75,0],[1,0.25,0],[1,0.5,0],[1,0.75,0]];outlineConnect=0;fontColor=#232F3E;gradientColor=#FF4F8B;gradientDirection=north;fillColor=#BC1356;strokeColor=#ffffff;dashed=0;verticalLabelPosition=bottom;verticalAlign=top;align=center;html=1;fontSize=12;fontStyle=0;aspect=fixed;shape=mxgraph.aws4.resourceIcon;resIcon=mxgraph.aws4.mobile_application;labelBackgroundColor=none;" parent="zAa8W5VV-ybh0DgIGJgr-8" vertex="1">
          <mxGeometry x="30" y="180" width="78" height="78" as="geometry" />
        </mxCell>
        <mxCell id="zAa8W5VV-ybh0DgIGJgr-42" style="edgeStyle=orthogonalEdgeStyle;rounded=0;orthogonalLoop=1;jettySize=auto;html=1;fontColor=default;" parent="zAa8W5VV-ybh0DgIGJgr-8" source="zAa8W5VV-ybh0DgIGJgr-43" target="zAa8W5VV-ybh0DgIGJgr-12" edge="1">
          <mxGeometry relative="1" as="geometry" />
        </mxCell>
        <mxCell id="zAa8W5VV-ybh0DgIGJgr-43" value="" style="sketch=0;points=[[0,0,0],[0.25,0,0],[0.5,0,0],[0.75,0,0],[1,0,0],[0,1,0],[0.25,1,0],[0.5,1,0],[0.75,1,0],[1,1,0],[0,0.25,0],[0,0.5,0],[0,0.75,0],[1,0.25,0],[1,0.5,0],[1,0.75,0]];outlineConnect=0;fontColor=#232F3E;gradientColor=#FF4F8B;gradientDirection=north;fillColor=#BC1356;strokeColor=#ffffff;dashed=0;verticalLabelPosition=bottom;verticalAlign=top;align=center;html=1;fontSize=12;fontStyle=0;aspect=fixed;shape=mxgraph.aws4.resourceIcon;resIcon=mxgraph.aws4.mobile_application;labelBackgroundColor=none;" parent="zAa8W5VV-ybh0DgIGJgr-8" vertex="1">
          <mxGeometry x="30" y="346" width="78" height="78" as="geometry" />
        </mxCell>
        <mxCell id="zAa8W5VV-ybh0DgIGJgr-44" value="Admin" style="text;html=1;strokeColor=none;fillColor=none;align=center;verticalAlign=middle;whiteSpace=wrap;rounded=0;fontColor=default;" parent="zAa8W5VV-ybh0DgIGJgr-8" vertex="1">
          <mxGeometry x="39" y="268" width="60" height="30" as="geometry" />
        </mxCell>
        <mxCell id="zAa8W5VV-ybh0DgIGJgr-45" value="User" style="text;html=1;strokeColor=none;fillColor=none;align=center;verticalAlign=middle;whiteSpace=wrap;rounded=0;fontColor=default;" parent="zAa8W5VV-ybh0DgIGJgr-8" vertex="1">
          <mxGeometry x="39" y="430" width="60" height="30" as="geometry" />
        </mxCell>
        <mxCell id="zAa8W5VV-ybh0DgIGJgr-46" value="" style="image;html=1;image=img/lib/clip_art/computers/Database_128x128.png;labelBackgroundColor=none;fontColor=default;fillColor=none;" parent="zAa8W5VV-ybh0DgIGJgr-8" vertex="1">
          <mxGeometry x="1340" y="28" width="80" height="80" as="geometry" />
        </mxCell>
        <mxCell id="zAa8W5VV-ybh0DgIGJgr-47" value="" style="image;html=1;image=img/lib/clip_art/computers/Database_128x128.png;labelBackgroundColor=none;fontColor=default;fillColor=none;" parent="zAa8W5VV-ybh0DgIGJgr-8" vertex="1">
          <mxGeometry x="1260" y="159" width="80" height="80" as="geometry" />
        </mxCell>
        <mxCell id="zAa8W5VV-ybh0DgIGJgr-48" value="" style="image;html=1;image=img/lib/clip_art/computers/Database_128x128.png;labelBackgroundColor=none;fontColor=default;fillColor=none;" parent="zAa8W5VV-ybh0DgIGJgr-8" vertex="1">
          <mxGeometry x="1410" y="298" width="80" height="80" as="geometry" />
        </mxCell>
        <mxCell id="zAa8W5VV-ybh0DgIGJgr-49" value="" style="image;html=1;image=img/lib/clip_art/computers/Database_128x128.png;labelBackgroundColor=none;fontColor=default;fillColor=none;" parent="zAa8W5VV-ybh0DgIGJgr-8" vertex="1">
          <mxGeometry x="1080" y="570" width="80" height="80" as="geometry" />
        </mxCell>
        <mxCell id="zAa8W5VV-ybh0DgIGJgr-50" style="edgeStyle=orthogonalEdgeStyle;rounded=0;orthogonalLoop=1;jettySize=auto;html=1;entryX=1;entryY=0.5;entryDx=0;entryDy=0;" parent="zAa8W5VV-ybh0DgIGJgr-8" source="zAa8W5VV-ybh0DgIGJgr-51" target="zAa8W5VV-ybh0DgIGJgr-47" edge="1">
          <mxGeometry relative="1" as="geometry" />
        </mxCell>
        <mxCell id="zAa8W5VV-ybh0DgIGJgr-53" style="edgeStyle=orthogonalEdgeStyle;rounded=0;orthogonalLoop=1;jettySize=auto;html=1;entryX=0;entryY=0.5;entryDx=0;entryDy=0;entryPerimeter=0;fontColor=default;" parent="zAa8W5VV-ybh0DgIGJgr-8" source="zAa8W5VV-ybh0DgIGJgr-60" target="zAa8W5VV-ybh0DgIGJgr-57" edge="1">
          <mxGeometry relative="1" as="geometry">
            <mxPoint x="529" y="772" as="sourcePoint" />
          </mxGeometry>
        </mxCell>
        <mxCell id="zAa8W5VV-ybh0DgIGJgr-54" style="edgeStyle=orthogonalEdgeStyle;rounded=0;orthogonalLoop=1;jettySize=auto;html=1;" parent="zAa8W5VV-ybh0DgIGJgr-8" source="zAa8W5VV-ybh0DgIGJgr-55" target="zAa8W5VV-ybh0DgIGJgr-58" edge="1">
          <mxGeometry relative="1" as="geometry" />
        </mxCell>
        <mxCell id="qgI-iGlP3_2ry2SQiDbS-46" style="edgeStyle=orthogonalEdgeStyle;rounded=0;orthogonalLoop=1;jettySize=auto;html=1;exitX=0.75;exitY=1;exitDx=0;exitDy=0;exitPerimeter=0;entryX=0.642;entryY=0.273;entryDx=0;entryDy=0;entryPerimeter=0;" parent="zAa8W5VV-ybh0DgIGJgr-8" source="zAa8W5VV-ybh0DgIGJgr-55" target="qgI-iGlP3_2ry2SQiDbS-44" edge="1">
          <mxGeometry relative="1" as="geometry" />
        </mxCell>
        <mxCell id="zAa8W5VV-ybh0DgIGJgr-55" value="" style="sketch=0;points=[[0,0,0],[0.25,0,0],[0.5,0,0],[0.75,0,0],[1,0,0],[0,1,0],[0.25,1,0],[0.5,1,0],[0.75,1,0],[1,1,0],[0,0.25,0],[0,0.5,0],[0,0.75,0],[1,0.25,0],[1,0.5,0],[1,0.75,0]];outlineConnect=0;fontColor=#232F3E;gradientColor=#F78E04;gradientDirection=north;fillColor=#D05C17;strokeColor=#ffffff;dashed=0;verticalLabelPosition=bottom;verticalAlign=top;align=center;html=1;fontSize=12;fontStyle=0;aspect=fixed;shape=mxgraph.aws4.resourceIcon;resIcon=mxgraph.aws4.compute;labelBackgroundColor=none;" parent="zAa8W5VV-ybh0DgIGJgr-8" vertex="1">
          <mxGeometry x="870" y="730" width="78" height="78" as="geometry" />
        </mxCell>
        <mxCell id="zAa8W5VV-ybh0DgIGJgr-56" style="edgeStyle=orthogonalEdgeStyle;rounded=0;orthogonalLoop=1;jettySize=auto;html=1;entryX=0;entryY=0.5;entryDx=0;entryDy=0;entryPerimeter=0;fontColor=default;" parent="zAa8W5VV-ybh0DgIGJgr-8" source="zAa8W5VV-ybh0DgIGJgr-57" target="zAa8W5VV-ybh0DgIGJgr-55" edge="1">
          <mxGeometry relative="1" as="geometry" />
        </mxCell>
        <mxCell id="zAa8W5VV-ybh0DgIGJgr-57" value="" style="sketch=0;points=[[0,0,0],[0.25,0,0],[0.5,0,0],[0.75,0,0],[1,0,0],[0,1,0],[0.25,1,0],[0.5,1,0],[0.75,1,0],[1,1,0],[0,0.25,0],[0,0.5,0],[0,0.75,0],[1,0.25,0],[1,0.5,0],[1,0.75,0]];outlineConnect=0;fontColor=#232F3E;gradientColor=#F78E04;gradientDirection=north;fillColor=#D05C17;strokeColor=#ffffff;dashed=0;verticalLabelPosition=bottom;verticalAlign=top;align=center;html=1;fontSize=12;fontStyle=0;aspect=fixed;shape=mxgraph.aws4.resourceIcon;resIcon=mxgraph.aws4.auto_scaling3;labelBackgroundColor=none;" parent="zAa8W5VV-ybh0DgIGJgr-8" vertex="1">
          <mxGeometry x="690" y="732" width="78" height="78" as="geometry" />
        </mxCell>
        <mxCell id="zAa8W5VV-ybh0DgIGJgr-58" value="" style="image;html=1;image=img/lib/clip_art/computers/Database_128x128.png;labelBackgroundColor=none;fontColor=default;fillColor=none;" parent="zAa8W5VV-ybh0DgIGJgr-8" vertex="1">
          <mxGeometry x="1070" y="730" width="80" height="80" as="geometry" />
        </mxCell>
        <mxCell id="zAa8W5VV-ybh0DgIGJgr-59" value="Promotion Service" style="text;html=1;strokeColor=none;fillColor=none;align=center;verticalAlign=middle;whiteSpace=wrap;rounded=0;fontColor=default;" parent="zAa8W5VV-ybh0DgIGJgr-8" vertex="1">
          <mxGeometry x="859" y="814" width="60" height="30" as="geometry" />
        </mxCell>
        <mxCell id="zAa8W5VV-ybh0DgIGJgr-60" value="" style="outlineConnect=0;dashed=0;verticalLabelPosition=bottom;verticalAlign=top;align=center;html=1;shape=mxgraph.aws3.application_load_balancer;fillColor=#F58534;gradientColor=none;labelBackgroundColor=none;fontColor=default;" parent="zAa8W5VV-ybh0DgIGJgr-8" vertex="1">
          <mxGeometry x="500" y="734" width="69" height="72" as="geometry" />
        </mxCell>
        <mxCell id="zAa8W5VV-ybh0DgIGJgr-61" value="" style="sketch=0;points=[[0,0,0],[0.25,0,0],[0.5,0,0],[0.75,0,0],[1,0,0],[0,1,0],[0.25,1,0],[0.5,1,0],[0.75,1,0],[1,1,0],[0,0.25,0],[0,0.5,0],[0,0.75,0],[1,0.25,0],[1,0.5,0],[1,0.75,0]];outlineConnect=0;fontColor=#232F3E;gradientColor=#FF4F8B;gradientDirection=north;fillColor=#BC1356;strokeColor=#ffffff;dashed=0;verticalLabelPosition=bottom;verticalAlign=top;align=center;html=1;fontSize=12;fontStyle=0;aspect=fixed;shape=mxgraph.aws4.resourceIcon;resIcon=mxgraph.aws4.sqs;" parent="zAa8W5VV-ybh0DgIGJgr-8" vertex="1">
          <mxGeometry x="690" y="400" width="120" height="120" as="geometry" />
        </mxCell>
        <mxCell id="zAa8W5VV-ybh0DgIGJgr-62" value="&lt;h1&gt;&lt;br&gt;&lt;/h1&gt;&lt;div&gt;1. Purchase Event&lt;/div&gt;&lt;div&gt;2. Purchase Fail&lt;/div&gt;&lt;div&gt;3. Purchase success&lt;/div&gt;&lt;div&gt;4. Order Placed event&lt;/div&gt;&lt;div&gt;5. Order Failure&lt;/div&gt;" style="text;html=1;strokeColor=none;fillColor=none;spacing=5;spacingTop=-20;whiteSpace=wrap;overflow=hidden;rounded=0;" parent="zAa8W5VV-ybh0DgIGJgr-8" vertex="1">
          <mxGeometry x="550" y="388" width="190" height="120" as="geometry" />
        </mxCell>
        <mxCell id="zAa8W5VV-ybh0DgIGJgr-63" value="CDC&lt;br&gt;Change data Capture" style="rhombus;whiteSpace=wrap;html=1;" parent="zAa8W5VV-ybh0DgIGJgr-8" vertex="1">
          <mxGeometry x="970" y="420" width="100" height="90" as="geometry" />
        </mxCell>
        <mxCell id="O-n4jwxhWIZyMhy7359m-2" value="" style="group" parent="zAa8W5VV-ybh0DgIGJgr-8" vertex="1" connectable="0">
          <mxGeometry x="985" y="70" width="80" height="68" as="geometry" />
        </mxCell>
        <object label="" id="O-n4jwxhWIZyMhy7359m-0">
          <mxCell style="sketch=0;html=1;dashed=0;whitespace=wrap;fillColor=#2875E2;strokeColor=#ffffff;points=[[0.005,0.63,0],[0.1,0.2,0],[0.9,0.2,0],[0.5,0,0],[0.995,0.63,0],[0.72,0.99,0],[0.5,1,0],[0.28,0.99,0]];verticalLabelPosition=bottom;align=center;verticalAlign=top;shape=mxgraph.kubernetes.icon;prIcon=api" parent="O-n4jwxhWIZyMhy7359m-2" vertex="1">
            <mxGeometry x="10" width="50" height="48" as="geometry" />
          </mxCell>
        </object>
        <mxCell id="O-n4jwxhWIZyMhy7359m-1" value="&lt;font style=&quot;font-size: 9px;&quot;&gt;Change Password&lt;/font&gt;" style="text;html=1;strokeColor=none;fillColor=none;align=center;verticalAlign=middle;whiteSpace=wrap;rounded=0;fontColor=default;" parent="O-n4jwxhWIZyMhy7359m-2" vertex="1">
          <mxGeometry y="40" width="80" height="28" as="geometry" />
        </mxCell>
        <mxCell id="O-n4jwxhWIZyMhy7359m-3" value="" style="group" parent="zAa8W5VV-ybh0DgIGJgr-8" vertex="1" connectable="0">
          <mxGeometry x="880" y="30" width="78" height="108" as="geometry" />
        </mxCell>
        <mxCell id="zAa8W5VV-ybh0DgIGJgr-14" value="" style="sketch=0;points=[[0,0,0],[0.25,0,0],[0.5,0,0],[0.75,0,0],[1,0,0],[0,1,0],[0.25,1,0],[0.5,1,0],[0.75,1,0],[1,1,0],[0,0.25,0],[0,0.5,0],[0,0.75,0],[1,0.25,0],[1,0.5,0],[1,0.75,0]];outlineConnect=0;fontColor=#232F3E;gradientColor=#F78E04;gradientDirection=north;fillColor=#D05C17;strokeColor=#ffffff;dashed=0;verticalLabelPosition=bottom;verticalAlign=top;align=center;html=1;fontSize=12;fontStyle=0;aspect=fixed;shape=mxgraph.aws4.resourceIcon;resIcon=mxgraph.aws4.compute;labelBackgroundColor=none;" parent="O-n4jwxhWIZyMhy7359m-3" vertex="1">
          <mxGeometry width="78" height="78" as="geometry" />
        </mxCell>
        <mxCell id="zAa8W5VV-ybh0DgIGJgr-36" value="User Service" style="text;html=1;strokeColor=none;fillColor=none;align=center;verticalAlign=middle;whiteSpace=wrap;rounded=0;fontColor=default;" parent="O-n4jwxhWIZyMhy7359m-3" vertex="1">
          <mxGeometry x="9" y="78" width="60" height="30" as="geometry" />
        </mxCell>
        <mxCell id="O-n4jwxhWIZyMhy7359m-4" value="" style="group" parent="zAa8W5VV-ybh0DgIGJgr-8" vertex="1" connectable="0">
          <mxGeometry x="880" y="160" width="78" height="108" as="geometry" />
        </mxCell>
        <mxCell id="zAa8W5VV-ybh0DgIGJgr-19" value="" style="sketch=0;points=[[0,0,0],[0.25,0,0],[0.5,0,0],[0.75,0,0],[1,0,0],[0,1,0],[0.25,1,0],[0.5,1,0],[0.75,1,0],[1,1,0],[0,0.25,0],[0,0.5,0],[0,0.75,0],[1,0.25,0],[1,0.5,0],[1,0.75,0]];outlineConnect=0;fontColor=#232F3E;gradientColor=#F78E04;gradientDirection=north;fillColor=#D05C17;strokeColor=#ffffff;dashed=0;verticalLabelPosition=bottom;verticalAlign=top;align=center;html=1;fontSize=12;fontStyle=0;aspect=fixed;shape=mxgraph.aws4.resourceIcon;resIcon=mxgraph.aws4.compute;labelBackgroundColor=none;" parent="O-n4jwxhWIZyMhy7359m-4" vertex="1">
          <mxGeometry width="78" height="78" as="geometry" />
        </mxCell>
        <mxCell id="zAa8W5VV-ybh0DgIGJgr-37" value="Catalog Service" style="text;html=1;strokeColor=none;fillColor=none;align=center;verticalAlign=middle;whiteSpace=wrap;rounded=0;fontColor=default;" parent="O-n4jwxhWIZyMhy7359m-4" vertex="1">
          <mxGeometry x="9" y="78" width="60" height="30" as="geometry" />
        </mxCell>
        <mxCell id="O-n4jwxhWIZyMhy7359m-5" value="" style="group" parent="zAa8W5VV-ybh0DgIGJgr-8" vertex="1" connectable="0">
          <mxGeometry x="880" y="280" width="78" height="108" as="geometry" />
        </mxCell>
        <mxCell id="zAa8W5VV-ybh0DgIGJgr-26" value="" style="sketch=0;points=[[0,0,0],[0.25,0,0],[0.5,0,0],[0.75,0,0],[1,0,0],[0,1,0],[0.25,1,0],[0.5,1,0],[0.75,1,0],[1,1,0],[0,0.25,0],[0,0.5,0],[0,0.75,0],[1,0.25,0],[1,0.5,0],[1,0.75,0]];outlineConnect=0;fontColor=#232F3E;gradientColor=#F78E04;gradientDirection=north;fillColor=#D05C17;strokeColor=#ffffff;dashed=0;verticalLabelPosition=bottom;verticalAlign=top;align=center;html=1;fontSize=12;fontStyle=0;aspect=fixed;shape=mxgraph.aws4.resourceIcon;resIcon=mxgraph.aws4.compute;labelBackgroundColor=none;" parent="O-n4jwxhWIZyMhy7359m-5" vertex="1">
          <mxGeometry width="78" height="78" as="geometry" />
        </mxCell>
        <mxCell id="zAa8W5VV-ybh0DgIGJgr-38" value="Order Service" style="text;html=1;strokeColor=none;fillColor=none;align=center;verticalAlign=middle;whiteSpace=wrap;rounded=0;fontColor=default;" parent="O-n4jwxhWIZyMhy7359m-5" vertex="1">
          <mxGeometry x="9" y="78" width="60" height="30" as="geometry" />
        </mxCell>
        <mxCell id="O-n4jwxhWIZyMhy7359m-6" value="" style="group" parent="zAa8W5VV-ybh0DgIGJgr-8" vertex="1" connectable="0">
          <mxGeometry x="1070" y="2" width="60" height="68" as="geometry" />
        </mxCell>
        <object label="" id="O-n4jwxhWIZyMhy7359m-7">
          <mxCell style="sketch=0;html=1;dashed=0;whitespace=wrap;fillColor=#2875E2;strokeColor=#ffffff;points=[[0.005,0.63,0],[0.1,0.2,0],[0.9,0.2,0],[0.5,0,0],[0.995,0.63,0],[0.72,0.99,0],[0.5,1,0],[0.28,0.99,0]];verticalLabelPosition=bottom;align=center;verticalAlign=top;shape=mxgraph.kubernetes.icon;prIcon=api" parent="O-n4jwxhWIZyMhy7359m-6" vertex="1">
            <mxGeometry x="10" width="50" height="48" as="geometry" />
          </mxCell>
        </object>
        <mxCell id="O-n4jwxhWIZyMhy7359m-8" value="&lt;font style=&quot;&quot;&gt;&lt;font style=&quot;font-size: 9px;&quot;&gt;Login API&lt;/font&gt;&lt;br&gt;&lt;/font&gt;" style="text;html=1;strokeColor=none;fillColor=none;align=center;verticalAlign=middle;whiteSpace=wrap;rounded=0;fontColor=default;" parent="O-n4jwxhWIZyMhy7359m-6" vertex="1">
          <mxGeometry y="40" width="60" height="28" as="geometry" />
        </mxCell>
        <mxCell id="O-n4jwxhWIZyMhy7359m-9" style="edgeStyle=orthogonalEdgeStyle;rounded=0;orthogonalLoop=1;jettySize=auto;html=1;exitX=1;exitY=0.5;exitDx=0;exitDy=0;exitPerimeter=0;entryX=0.005;entryY=0.63;entryDx=0;entryDy=0;entryPerimeter=0;" parent="zAa8W5VV-ybh0DgIGJgr-8" source="zAa8W5VV-ybh0DgIGJgr-14" target="O-n4jwxhWIZyMhy7359m-0" edge="1">
          <mxGeometry relative="1" as="geometry" />
        </mxCell>
        <mxCell id="O-n4jwxhWIZyMhy7359m-10" style="edgeStyle=orthogonalEdgeStyle;rounded=0;orthogonalLoop=1;jettySize=auto;html=1;exitX=1;exitY=0.5;exitDx=0;exitDy=0;exitPerimeter=0;entryX=0.039;entryY=0.524;entryDx=0;entryDy=0;entryPerimeter=0;" parent="zAa8W5VV-ybh0DgIGJgr-8" source="zAa8W5VV-ybh0DgIGJgr-14" target="O-n4jwxhWIZyMhy7359m-7" edge="1">
          <mxGeometry relative="1" as="geometry">
            <mxPoint x="1070" y="97" as="targetPoint" />
            <Array as="points">
              <mxPoint x="1060" y="69" />
              <mxPoint x="1060" y="42" />
              <mxPoint x="1077" y="42" />
              <mxPoint x="1077" y="43" />
            </Array>
          </mxGeometry>
        </mxCell>
        <mxCell id="O-n4jwxhWIZyMhy7359m-11" value="" style="group" parent="zAa8W5VV-ybh0DgIGJgr-8" vertex="1" connectable="0">
          <mxGeometry x="1190" y="68" width="60" height="70" as="geometry" />
        </mxCell>
        <object label="" id="O-n4jwxhWIZyMhy7359m-12">
          <mxCell style="sketch=0;html=1;dashed=0;whitespace=wrap;fillColor=#2875E2;strokeColor=#ffffff;points=[[0.005,0.63,0],[0.1,0.2,0],[0.9,0.2,0],[0.5,0,0],[0.995,0.63,0],[0.72,0.99,0],[0.5,1,0],[0.28,0.99,0]];verticalLabelPosition=bottom;align=center;verticalAlign=top;shape=mxgraph.kubernetes.icon;prIcon=api" parent="O-n4jwxhWIZyMhy7359m-11" vertex="1">
            <mxGeometry x="10" width="50" height="49.41176470588235" as="geometry" />
          </mxCell>
        </object>
        <mxCell id="O-n4jwxhWIZyMhy7359m-13" value="&lt;font style=&quot;&quot;&gt;&lt;font style=&quot;font-size: 9px;&quot;&gt;User WishList&lt;/font&gt;&lt;br&gt;&lt;/font&gt;" style="text;html=1;strokeColor=none;fillColor=none;align=center;verticalAlign=middle;whiteSpace=wrap;rounded=0;fontColor=default;" parent="O-n4jwxhWIZyMhy7359m-11" vertex="1">
          <mxGeometry y="41.17647058823529" width="60" height="28.823529411764703" as="geometry" />
        </mxCell>
        <mxCell id="O-n4jwxhWIZyMhy7359m-15" style="edgeStyle=orthogonalEdgeStyle;rounded=0;orthogonalLoop=1;jettySize=auto;html=1;exitX=1;exitY=0.5;exitDx=0;exitDy=0;exitPerimeter=0;entryX=0;entryY=0.5;entryDx=0;entryDy=0;" parent="zAa8W5VV-ybh0DgIGJgr-8" source="zAa8W5VV-ybh0DgIGJgr-14" target="O-n4jwxhWIZyMhy7359m-13" edge="1">
          <mxGeometry relative="1" as="geometry">
            <Array as="points">
              <mxPoint x="1130" y="69" />
              <mxPoint x="1130" y="124" />
            </Array>
          </mxGeometry>
        </mxCell>
        <mxCell id="qgI-iGlP3_2ry2SQiDbS-0" value="" style="group" parent="zAa8W5VV-ybh0DgIGJgr-8" vertex="1" connectable="0">
          <mxGeometry x="1000" y="212" width="80" height="68" as="geometry" />
        </mxCell>
        <object label="" id="qgI-iGlP3_2ry2SQiDbS-1">
          <mxCell style="sketch=0;html=1;dashed=0;whitespace=wrap;fillColor=#2875E2;strokeColor=#ffffff;points=[[0.005,0.63,0],[0.1,0.2,0],[0.9,0.2,0],[0.5,0,0],[0.995,0.63,0],[0.72,0.99,0],[0.5,1,0],[0.28,0.99,0]];verticalLabelPosition=bottom;align=center;verticalAlign=top;shape=mxgraph.kubernetes.icon;prIcon=api" parent="qgI-iGlP3_2ry2SQiDbS-0" vertex="1">
            <mxGeometry x="10" width="50" height="48" as="geometry" />
          </mxCell>
        </object>
        <mxCell id="qgI-iGlP3_2ry2SQiDbS-2" value="&lt;font style=&quot;font-size: 9px;&quot;&gt;categories&lt;/font&gt;" style="text;html=1;strokeColor=none;fillColor=none;align=center;verticalAlign=middle;whiteSpace=wrap;rounded=0;fontColor=default;" parent="qgI-iGlP3_2ry2SQiDbS-0" vertex="1">
          <mxGeometry y="40" width="80" height="28" as="geometry" />
        </mxCell>
        <mxCell id="qgI-iGlP3_2ry2SQiDbS-13" style="edgeStyle=orthogonalEdgeStyle;rounded=0;orthogonalLoop=1;jettySize=auto;html=1;exitX=1;exitY=0.75;exitDx=0;exitDy=0;exitPerimeter=0;" parent="zAa8W5VV-ybh0DgIGJgr-8" source="zAa8W5VV-ybh0DgIGJgr-19" target="qgI-iGlP3_2ry2SQiDbS-1" edge="1">
          <mxGeometry relative="1" as="geometry" />
        </mxCell>
        <mxCell id="qgI-iGlP3_2ry2SQiDbS-22" style="edgeStyle=orthogonalEdgeStyle;rounded=0;orthogonalLoop=1;jettySize=auto;html=1;exitX=0;exitY=0.25;exitDx=0;exitDy=0;exitPerimeter=0;entryX=1.004;entryY=0.371;entryDx=0;entryDy=0;entryPerimeter=0;" parent="zAa8W5VV-ybh0DgIGJgr-8" source="qgI-iGlP3_2ry2SQiDbS-16" target="zAa8W5VV-ybh0DgIGJgr-49" edge="1">
          <mxGeometry relative="1" as="geometry" />
        </mxCell>
        <mxCell id="qgI-iGlP3_2ry2SQiDbS-42" style="edgeStyle=orthogonalEdgeStyle;rounded=0;orthogonalLoop=1;jettySize=auto;html=1;exitX=1;exitY=0.5;exitDx=0;exitDy=0;exitPerimeter=0;entryX=0.005;entryY=0.63;entryDx=0;entryDy=0;entryPerimeter=0;" parent="zAa8W5VV-ybh0DgIGJgr-8" source="qgI-iGlP3_2ry2SQiDbS-16" target="qgI-iGlP3_2ry2SQiDbS-40" edge="1">
          <mxGeometry relative="1" as="geometry" />
        </mxCell>
        <mxCell id="qgI-iGlP3_2ry2SQiDbS-16" value="" style="sketch=0;points=[[0,0,0],[0.25,0,0],[0.5,0,0],[0.75,0,0],[1,0,0],[0,1,0],[0.25,1,0],[0.5,1,0],[0.75,1,0],[1,1,0],[0,0.25,0],[0,0.5,0],[0,0.75,0],[1,0.25,0],[1,0.5,0],[1,0.75,0]];outlineConnect=0;fontColor=#232F3E;gradientColor=#F78E04;gradientDirection=north;fillColor=#D05C17;strokeColor=#ffffff;dashed=0;verticalLabelPosition=bottom;verticalAlign=top;align=center;html=1;fontSize=12;fontStyle=0;aspect=fixed;shape=mxgraph.aws4.resourceIcon;resIcon=mxgraph.aws4.compute;labelBackgroundColor=none;" parent="zAa8W5VV-ybh0DgIGJgr-8" vertex="1">
          <mxGeometry x="1220" y="572" width="78" height="78" as="geometry" />
        </mxCell>
        <mxCell id="qgI-iGlP3_2ry2SQiDbS-17" value="Shipment service" style="text;html=1;strokeColor=none;fillColor=none;align=center;verticalAlign=middle;whiteSpace=wrap;rounded=0;fontColor=default;" parent="zAa8W5VV-ybh0DgIGJgr-8" vertex="1">
          <mxGeometry x="1229" y="658" width="60" height="30" as="geometry" />
        </mxCell>
        <mxCell id="qgI-iGlP3_2ry2SQiDbS-27" value="" style="group" parent="zAa8W5VV-ybh0DgIGJgr-8" vertex="1" connectable="0">
          <mxGeometry x="1140" y="332" width="80" height="68" as="geometry" />
        </mxCell>
        <object label="" id="qgI-iGlP3_2ry2SQiDbS-28">
          <mxCell style="sketch=0;html=1;dashed=0;whitespace=wrap;fillColor=#2875E2;strokeColor=#ffffff;points=[[0.005,0.63,0],[0.1,0.2,0],[0.9,0.2,0],[0.5,0,0],[0.995,0.63,0],[0.72,0.99,0],[0.5,1,0],[0.28,0.99,0]];verticalLabelPosition=bottom;align=center;verticalAlign=top;shape=mxgraph.kubernetes.icon;prIcon=api" parent="qgI-iGlP3_2ry2SQiDbS-27" vertex="1">
            <mxGeometry x="10" width="50" height="48" as="geometry" />
          </mxCell>
        </object>
        <mxCell id="qgI-iGlP3_2ry2SQiDbS-29" value="&lt;font style=&quot;font-size: 9px;&quot;&gt;reorder&amp;nbsp;&lt;br&gt;&lt;/font&gt;" style="text;html=1;strokeColor=none;fillColor=none;align=center;verticalAlign=middle;whiteSpace=wrap;rounded=0;fontColor=default;" parent="qgI-iGlP3_2ry2SQiDbS-27" vertex="1">
          <mxGeometry y="40" width="80" height="28" as="geometry" />
        </mxCell>
        <mxCell id="qgI-iGlP3_2ry2SQiDbS-31" value="" style="group" parent="zAa8W5VV-ybh0DgIGJgr-8" vertex="1" connectable="0">
          <mxGeometry x="1240" y="332" width="80" height="68" as="geometry" />
        </mxCell>
        <object label="" id="qgI-iGlP3_2ry2SQiDbS-32">
          <mxCell style="sketch=0;html=1;dashed=0;whitespace=wrap;fillColor=#2875E2;strokeColor=#ffffff;points=[[0.005,0.63,0],[0.1,0.2,0],[0.9,0.2,0],[0.5,0,0],[0.995,0.63,0],[0.72,0.99,0],[0.5,1,0],[0.28,0.99,0]];verticalLabelPosition=bottom;align=center;verticalAlign=top;shape=mxgraph.kubernetes.icon;prIcon=api" parent="qgI-iGlP3_2ry2SQiDbS-31" vertex="1">
            <mxGeometry x="10" width="50" height="48" as="geometry" />
          </mxCell>
        </object>
        <mxCell id="qgI-iGlP3_2ry2SQiDbS-33" value="&lt;font style=&quot;font-size: 9px;&quot;&gt;Address Capture&lt;br&gt;&lt;/font&gt;" style="text;html=1;strokeColor=none;fillColor=none;align=center;verticalAlign=middle;whiteSpace=wrap;rounded=0;fontColor=default;" parent="qgI-iGlP3_2ry2SQiDbS-31" vertex="1">
          <mxGeometry y="40" width="80" height="28" as="geometry" />
        </mxCell>
        <mxCell id="qgI-iGlP3_2ry2SQiDbS-34" value="" style="group" parent="zAa8W5VV-ybh0DgIGJgr-8" vertex="1" connectable="0">
          <mxGeometry x="1180" y="2" width="80" height="68" as="geometry" />
        </mxCell>
        <object label="" id="qgI-iGlP3_2ry2SQiDbS-35">
          <mxCell style="sketch=0;html=1;dashed=0;whitespace=wrap;fillColor=#2875E2;strokeColor=#ffffff;points=[[0.005,0.63,0],[0.1,0.2,0],[0.9,0.2,0],[0.5,0,0],[0.995,0.63,0],[0.72,0.99,0],[0.5,1,0],[0.28,0.99,0]];verticalLabelPosition=bottom;align=center;verticalAlign=top;shape=mxgraph.kubernetes.icon;prIcon=api" parent="qgI-iGlP3_2ry2SQiDbS-34" vertex="1">
            <mxGeometry x="10" width="50" height="48" as="geometry" />
          </mxCell>
        </object>
        <mxCell id="qgI-iGlP3_2ry2SQiDbS-36" value="&lt;font style=&quot;font-size: 9px;&quot;&gt;USER Details&lt;br&gt;&lt;/font&gt;" style="text;html=1;strokeColor=none;fillColor=none;align=center;verticalAlign=middle;whiteSpace=wrap;rounded=0;fontColor=default;" parent="qgI-iGlP3_2ry2SQiDbS-34" vertex="1">
          <mxGeometry y="40" width="80" height="28" as="geometry" />
        </mxCell>
        <mxCell id="qgI-iGlP3_2ry2SQiDbS-38" value="" style="group" parent="zAa8W5VV-ybh0DgIGJgr-8" vertex="1" connectable="0">
          <mxGeometry x="1390" y="160" width="78" height="106" as="geometry" />
        </mxCell>
        <mxCell id="zAa8W5VV-ybh0DgIGJgr-51" value="" style="sketch=0;points=[[0,0,0],[0.25,0,0],[0.5,0,0],[0.75,0,0],[1,0,0],[0,1,0],[0.25,1,0],[0.5,1,0],[0.75,1,0],[1,1,0],[0,0.25,0],[0,0.5,0],[0,0.75,0],[1,0.25,0],[1,0.5,0],[1,0.75,0]];outlineConnect=0;fontColor=#232F3E;gradientColor=#F78E04;gradientDirection=north;fillColor=#D05C17;strokeColor=#ffffff;dashed=0;verticalLabelPosition=bottom;verticalAlign=top;align=center;html=1;fontSize=12;fontStyle=0;aspect=fixed;shape=mxgraph.aws4.resourceIcon;resIcon=mxgraph.aws4.compute;labelBackgroundColor=none;" parent="qgI-iGlP3_2ry2SQiDbS-38" vertex="1">
          <mxGeometry width="78" height="78" as="geometry" />
        </mxCell>
        <mxCell id="zAa8W5VV-ybh0DgIGJgr-52" value="Inventory Management" style="text;html=1;strokeColor=none;fillColor=none;align=center;verticalAlign=middle;whiteSpace=wrap;rounded=0;fontColor=default;" parent="qgI-iGlP3_2ry2SQiDbS-38" vertex="1">
          <mxGeometry x="9" y="76" width="60" height="30" as="geometry" />
        </mxCell>
        <mxCell id="qgI-iGlP3_2ry2SQiDbS-39" value="" style="group" parent="zAa8W5VV-ybh0DgIGJgr-8" vertex="1" connectable="0">
          <mxGeometry x="1360" y="580" width="80" height="68" as="geometry" />
        </mxCell>
        <object label="" id="qgI-iGlP3_2ry2SQiDbS-40">
          <mxCell style="sketch=0;html=1;dashed=0;whitespace=wrap;fillColor=#2875E2;strokeColor=#ffffff;points=[[0.005,0.63,0],[0.1,0.2,0],[0.9,0.2,0],[0.5,0,0],[0.995,0.63,0],[0.72,0.99,0],[0.5,1,0],[0.28,0.99,0]];verticalLabelPosition=bottom;align=center;verticalAlign=top;shape=mxgraph.kubernetes.icon;prIcon=api" parent="qgI-iGlP3_2ry2SQiDbS-39" vertex="1">
            <mxGeometry x="10" width="50" height="48" as="geometry" />
          </mxCell>
        </object>
        <mxCell id="qgI-iGlP3_2ry2SQiDbS-41" value="&lt;font style=&quot;font-size: 9px;&quot;&gt;Track Status&lt;br&gt;&lt;/font&gt;" style="text;html=1;strokeColor=none;fillColor=none;align=center;verticalAlign=middle;whiteSpace=wrap;rounded=0;fontColor=default;" parent="qgI-iGlP3_2ry2SQiDbS-39" vertex="1">
          <mxGeometry y="40" width="80" height="28" as="geometry" />
        </mxCell>
        <mxCell id="qgI-iGlP3_2ry2SQiDbS-43" value="" style="group" parent="zAa8W5VV-ybh0DgIGJgr-8" vertex="1" connectable="0">
          <mxGeometry x="1000" y="814" width="80" height="66" as="geometry" />
        </mxCell>
        <object label="" id="qgI-iGlP3_2ry2SQiDbS-44">
          <mxCell style="sketch=0;html=1;dashed=0;whitespace=wrap;fillColor=#2875E2;strokeColor=#ffffff;points=[[0.005,0.63,0],[0.1,0.2,0],[0.9,0.2,0],[0.5,0,0],[0.995,0.63,0],[0.72,0.99,0],[0.5,1,0],[0.28,0.99,0]];verticalLabelPosition=bottom;align=center;verticalAlign=top;shape=mxgraph.kubernetes.icon;prIcon=api" parent="qgI-iGlP3_2ry2SQiDbS-43" vertex="1">
            <mxGeometry x="10" width="50" height="46.588235294117645" as="geometry" />
          </mxCell>
        </object>
        <mxCell id="qgI-iGlP3_2ry2SQiDbS-45" value="&lt;font style=&quot;font-size: 9px;&quot;&gt;Adv API&lt;br&gt;&lt;/font&gt;" style="text;html=1;strokeColor=none;fillColor=none;align=center;verticalAlign=middle;whiteSpace=wrap;rounded=0;fontColor=default;" parent="qgI-iGlP3_2ry2SQiDbS-43" vertex="1">
          <mxGeometry y="38.8235294117647" width="80" height="27.176470588235293" as="geometry" />
        </mxCell>
        <mxCell id="zAa8W5VV-ybh0DgIGJgr-64" style="edgeStyle=orthogonalEdgeStyle;rounded=0;orthogonalLoop=1;jettySize=auto;html=1;entryX=0;entryY=0.5;entryDx=0;entryDy=0;entryPerimeter=0;fontColor=default;" parent="zAa8W5VV-ybh0DgIGJgr-1" source="zAa8W5VV-ybh0DgIGJgr-12" target="zAa8W5VV-ybh0DgIGJgr-5" edge="1">
          <mxGeometry relative="1" as="geometry">
            <Array as="points">
              <mxPoint x="440" y="325" />
              <mxPoint x="440" y="110" />
            </Array>
          </mxGeometry>
        </mxCell>
        <mxCell id="zAa8W5VV-ybh0DgIGJgr-65" value="External Services" style="fillColor=none;strokeColor=#5A6C86;dashed=1;verticalAlign=top;fontStyle=0;fontColor=#5A6C86;whiteSpace=wrap;html=1;" parent="zAa8W5VV-ybh0DgIGJgr-1" vertex="1">
          <mxGeometry x="1550" y="40" width="180" height="890" as="geometry" />
        </mxCell>
        <mxCell id="zAa8W5VV-ybh0DgIGJgr-66" value="Payment Gateway" style="shape=cube;whiteSpace=wrap;html=1;boundedLbl=1;backgroundOutline=1;darkOpacity=0.05;darkOpacity2=0.1;" parent="zAa8W5VV-ybh0DgIGJgr-1" vertex="1">
          <mxGeometry x="1590" y="700" width="120" height="80" as="geometry" />
        </mxCell>
        <mxCell id="zAa8W5VV-ybh0DgIGJgr-67" style="edgeStyle=orthogonalEdgeStyle;rounded=0;orthogonalLoop=1;jettySize=auto;html=1;entryX=0;entryY=0;entryDx=0;entryDy=30;entryPerimeter=0;" parent="zAa8W5VV-ybh0DgIGJgr-1" source="zAa8W5VV-ybh0DgIGJgr-39" target="zAa8W5VV-ybh0DgIGJgr-66" edge="1">
          <mxGeometry relative="1" as="geometry">
            <Array as="points">
              <mxPoint x="929" y="730" />
              <mxPoint x="1590" y="730" />
            </Array>
          </mxGeometry>
        </mxCell>
        <mxCell id="zAa8W5VV-ybh0DgIGJgr-68" value="Google / Facebook&lt;br&gt;Login" style="shape=cube;whiteSpace=wrap;html=1;boundedLbl=1;backgroundOutline=1;darkOpacity=0.05;darkOpacity2=0.1;" parent="zAa8W5VV-ybh0DgIGJgr-1" vertex="1">
          <mxGeometry x="1590" y="74" width="120" height="80" as="geometry" />
        </mxCell>
        <mxCell id="zAa8W5VV-ybh0DgIGJgr-69" style="edgeStyle=orthogonalEdgeStyle;rounded=0;orthogonalLoop=1;jettySize=auto;html=1;" parent="zAa8W5VV-ybh0DgIGJgr-1" source="zAa8W5VV-ybh0DgIGJgr-14" target="zAa8W5VV-ybh0DgIGJgr-68" edge="1">
          <mxGeometry relative="1" as="geometry">
            <Array as="points">
              <mxPoint x="929" y="180" />
              <mxPoint x="1540" y="180" />
              <mxPoint x="1540" y="114" />
            </Array>
          </mxGeometry>
        </mxCell>
        <mxCell id="qgI-iGlP3_2ry2SQiDbS-4" value="" style="group" parent="zAa8W5VV-ybh0DgIGJgr-1" vertex="1" connectable="0">
          <mxGeometry x="1101" y="234" width="80" height="68" as="geometry" />
        </mxCell>
        <object label="" id="qgI-iGlP3_2ry2SQiDbS-5">
          <mxCell style="sketch=0;html=1;dashed=0;whitespace=wrap;fillColor=#2875E2;strokeColor=#ffffff;points=[[0.005,0.63,0],[0.1,0.2,0],[0.9,0.2,0],[0.5,0,0],[0.995,0.63,0],[0.72,0.99,0],[0.5,1,0],[0.28,0.99,0]];verticalLabelPosition=bottom;align=center;verticalAlign=top;shape=mxgraph.kubernetes.icon;prIcon=api" parent="qgI-iGlP3_2ry2SQiDbS-4" vertex="1">
            <mxGeometry x="10" width="50" height="48" as="geometry" />
          </mxCell>
        </object>
        <mxCell id="qgI-iGlP3_2ry2SQiDbS-6" value="&lt;font style=&quot;font-size: 9px;&quot;&gt;Brand Wise&lt;/font&gt;" style="text;html=1;strokeColor=none;fillColor=none;align=center;verticalAlign=middle;whiteSpace=wrap;rounded=0;fontColor=default;" parent="qgI-iGlP3_2ry2SQiDbS-4" vertex="1">
          <mxGeometry y="40" width="80" height="28" as="geometry" />
        </mxCell>
        <mxCell id="qgI-iGlP3_2ry2SQiDbS-7" value="" style="group" parent="zAa8W5VV-ybh0DgIGJgr-1" vertex="1" connectable="0">
          <mxGeometry x="1190" y="234" width="80" height="68" as="geometry" />
        </mxCell>
        <object label="" id="qgI-iGlP3_2ry2SQiDbS-8">
          <mxCell style="sketch=0;html=1;dashed=0;whitespace=wrap;fillColor=#2875E2;strokeColor=#ffffff;points=[[0.005,0.63,0],[0.1,0.2,0],[0.9,0.2,0],[0.5,0,0],[0.995,0.63,0],[0.72,0.99,0],[0.5,1,0],[0.28,0.99,0]];verticalLabelPosition=bottom;align=center;verticalAlign=top;shape=mxgraph.kubernetes.icon;prIcon=api" parent="qgI-iGlP3_2ry2SQiDbS-7" vertex="1">
            <mxGeometry x="10" width="50" height="48" as="geometry" />
          </mxCell>
        </object>
        <mxCell id="qgI-iGlP3_2ry2SQiDbS-9" value="&lt;font style=&quot;font-size: 9px;&quot;&gt;Item Wise&lt;/font&gt;" style="text;html=1;strokeColor=none;fillColor=none;align=center;verticalAlign=middle;whiteSpace=wrap;rounded=0;fontColor=default;" parent="qgI-iGlP3_2ry2SQiDbS-7" vertex="1">
          <mxGeometry y="40" width="80" height="28" as="geometry" />
        </mxCell>
        <mxCell id="qgI-iGlP3_2ry2SQiDbS-14" style="edgeStyle=orthogonalEdgeStyle;rounded=0;orthogonalLoop=1;jettySize=auto;html=1;entryX=0.005;entryY=0.63;entryDx=0;entryDy=0;entryPerimeter=0;" parent="zAa8W5VV-ybh0DgIGJgr-1" source="qgI-iGlP3_2ry2SQiDbS-1" target="qgI-iGlP3_2ry2SQiDbS-5" edge="1">
          <mxGeometry relative="1" as="geometry" />
        </mxCell>
        <mxCell id="qgI-iGlP3_2ry2SQiDbS-15" style="edgeStyle=orthogonalEdgeStyle;rounded=0;orthogonalLoop=1;jettySize=auto;html=1;exitX=0.995;exitY=0.63;exitDx=0;exitDy=0;exitPerimeter=0;" parent="zAa8W5VV-ybh0DgIGJgr-1" source="qgI-iGlP3_2ry2SQiDbS-5" target="qgI-iGlP3_2ry2SQiDbS-8" edge="1">
          <mxGeometry relative="1" as="geometry" />
        </mxCell>
        <mxCell id="qgI-iGlP3_2ry2SQiDbS-23" value="" style="group" parent="zAa8W5VV-ybh0DgIGJgr-1" vertex="1" connectable="0">
          <mxGeometry x="1044" y="352" width="80" height="68" as="geometry" />
        </mxCell>
        <object label="" id="qgI-iGlP3_2ry2SQiDbS-24">
          <mxCell style="sketch=0;html=1;dashed=0;whitespace=wrap;fillColor=#2875E2;strokeColor=#ffffff;points=[[0.005,0.63,0],[0.1,0.2,0],[0.9,0.2,0],[0.5,0,0],[0.995,0.63,0],[0.72,0.99,0],[0.5,1,0],[0.28,0.99,0]];verticalLabelPosition=bottom;align=center;verticalAlign=top;shape=mxgraph.kubernetes.icon;prIcon=api" parent="qgI-iGlP3_2ry2SQiDbS-23" vertex="1">
            <mxGeometry x="10" width="50" height="48" as="geometry" />
          </mxCell>
        </object>
        <mxCell id="qgI-iGlP3_2ry2SQiDbS-25" value="&lt;font style=&quot;font-size: 9px;&quot;&gt;Edit Order&lt;br&gt;&lt;/font&gt;" style="text;html=1;strokeColor=none;fillColor=none;align=center;verticalAlign=middle;whiteSpace=wrap;rounded=0;fontColor=default;" parent="qgI-iGlP3_2ry2SQiDbS-23" vertex="1">
          <mxGeometry y="40" width="80" height="28" as="geometry" />
        </mxCell>
      </root>
    </mxGraphModel>
  </diagram>
  <diagram id="E0ki7Ody2F71XmQt834u" name="L5(R-2023-06-02)">
    <mxGraphModel dx="954" dy="529" grid="1" gridSize="10" guides="1" tooltips="1" connect="1" arrows="1" fold="1" page="1" pageScale="1" pageWidth="850" pageHeight="1100" math="0" shadow="0">
      <root>
        <mxCell id="0" />
        <mxCell id="1" parent="0" />
        <mxCell id="SrOVR_gGXNINzlTVxzMa-1" value="&lt;h1&gt;Use Cases&lt;/h1&gt;" style="text;html=1;strokeColor=none;fillColor=none;spacing=5;spacingTop=-20;whiteSpace=wrap;overflow=hidden;rounded=0;" parent="1" vertex="1">
          <mxGeometry x="30" y="20" width="190" height="50" as="geometry" />
        </mxCell>
        <mxCell id="SrOVR_gGXNINzlTVxzMa-2" value="&lt;h1&gt;User Login&lt;/h1&gt;&lt;div&gt;User should be able to Login using email/password or user choose to user mobile number for login.&lt;/div&gt;&lt;div&gt;User should be able to login using social media login Facebook/Gmail&lt;/div&gt;" style="text;html=1;strokeColor=none;fillColor=none;spacing=5;spacingTop=-20;whiteSpace=wrap;overflow=hidden;rounded=0;" parent="1" vertex="1">
          <mxGeometry x="30" y="120" width="190" height="140" as="geometry" />
        </mxCell>
        <mxCell id="SrOVR_gGXNINzlTVxzMa-3" value="&lt;h1&gt;User Registration&lt;/h1&gt;&lt;div&gt;User should be able to register using email/password or using mobile phone number.&lt;/div&gt;&lt;div&gt;Verify users credentials using one time password.&lt;/div&gt;" style="text;html=1;strokeColor=none;fillColor=none;spacing=5;spacingTop=-20;whiteSpace=wrap;overflow=hidden;rounded=0;" parent="1" vertex="1">
          <mxGeometry x="30" y="270" width="210" height="130" as="geometry" />
        </mxCell>
        <mxCell id="SrOVR_gGXNINzlTVxzMa-4" value="&lt;h1&gt;User Subsystem&lt;/h1&gt;" style="text;html=1;strokeColor=none;fillColor=none;spacing=5;spacingTop=-20;whiteSpace=wrap;overflow=hidden;rounded=0;" parent="1" vertex="1">
          <mxGeometry x="30" y="70" width="230" height="50" as="geometry" />
        </mxCell>
        <mxCell id="SrOVR_gGXNINzlTVxzMa-5" value="&lt;h1&gt;User Demographics&amp;nbsp;&lt;/h1&gt;&lt;div&gt;User should be able to provide demographics information like first name, last name, DOB, Gender, Marital status, Date of Marriage, any special occasion date etc.&lt;br&gt;&lt;/div&gt;&lt;div&gt;&lt;br&gt;&lt;/div&gt;&lt;div&gt;User should be able to provide Address information Home address, office address, Other address.&lt;/div&gt;&lt;div&gt;&lt;br&gt;&lt;/div&gt;" style="text;html=1;strokeColor=none;fillColor=none;spacing=5;spacingTop=-20;whiteSpace=wrap;overflow=hidden;rounded=0;" parent="1" vertex="1">
          <mxGeometry x="30" y="410" width="260" height="200" as="geometry" />
        </mxCell>
        <mxCell id="SrOVR_gGXNINzlTVxzMa-6" value="&lt;h1&gt;Order Place&lt;/h1&gt;&lt;div&gt;User should be able to Buy/Add product/item to their cart.&lt;br&gt;&lt;/div&gt;&lt;div&gt;User should be allowed to review the cart before starting Checkout process.&lt;/div&gt;&lt;div&gt;User can add product to their wishlist.&lt;/div&gt;&lt;div&gt;User can pick product from wishlist and add to cart for checkout.&lt;/div&gt;&lt;div&gt;User should be able to review the order previously placed.&lt;/div&gt;" style="text;html=1;strokeColor=none;fillColor=none;spacing=5;spacingTop=-20;whiteSpace=wrap;overflow=hidden;rounded=0;" parent="1" vertex="1">
          <mxGeometry x="480" y="120" width="190" height="240" as="geometry" />
        </mxCell>
        <mxCell id="SrOVR_gGXNINzlTVxzMa-7" value="&lt;h1&gt;Checkout&lt;/h1&gt;&lt;div&gt;User will be allowed to review the Cart information.&lt;/div&gt;&lt;div&gt;Single order can have multiple product and quantity, which user can modify at checkout process&lt;/div&gt;&lt;div&gt;Display Subtotal and order total for items added to the cart.&lt;/div&gt;&lt;div&gt;User will be allowed to add new address or select existing address during checkout process.&lt;/div&gt;&lt;div&gt;User can decide the payment option during checkout process&lt;/div&gt;&lt;div&gt;Any promotion/Coupon can be applied at checkout process and total will be updated.&lt;/div&gt;" style="text;html=1;strokeColor=none;fillColor=none;spacing=5;spacingTop=-20;whiteSpace=wrap;overflow=hidden;rounded=0;" parent="1" vertex="1">
          <mxGeometry x="480" y="390" width="210" height="270" as="geometry" />
        </mxCell>
        <mxCell id="SrOVR_gGXNINzlTVxzMa-8" value="&lt;h1&gt;Order Subsystem&lt;/h1&gt;" style="text;html=1;strokeColor=none;fillColor=none;spacing=5;spacingTop=-20;whiteSpace=wrap;overflow=hidden;rounded=0;" parent="1" vertex="1">
          <mxGeometry x="480" y="70" width="230" height="50" as="geometry" />
        </mxCell>
        <mxCell id="SrOVR_gGXNINzlTVxzMa-9" value="&lt;h1&gt;Payment&amp;nbsp;&lt;/h1&gt;&lt;div&gt;Allow user to direct to payment gateway to complete payment information.&lt;/div&gt;&lt;div&gt;Due to PCI compliance, system will not hold any payment related information like card, expiry or cvv number or any other information.&lt;/div&gt;&lt;div&gt;Every time user has to enter information before checkout.&lt;/div&gt;&lt;div&gt;&lt;br&gt;&lt;/div&gt;" style="text;html=1;strokeColor=none;fillColor=none;spacing=5;spacingTop=-20;whiteSpace=wrap;overflow=hidden;rounded=0;" parent="1" vertex="1">
          <mxGeometry x="480" y="720" width="260" height="170" as="geometry" />
        </mxCell>
        <mxCell id="SrOVR_gGXNINzlTVxzMa-10" value="" style="endArrow=none;dashed=1;html=1;dashPattern=1 3;strokeWidth=2;rounded=0;" parent="1" edge="1">
          <mxGeometry width="50" height="50" relative="1" as="geometry">
            <mxPoint x="400" y="1042.666748046875" as="sourcePoint" />
            <mxPoint x="400" y="80" as="targetPoint" />
          </mxGeometry>
        </mxCell>
        <mxCell id="9YIT4iiV18_NEJyb0_77-1" value="&lt;h1&gt;Order Placed&lt;/h1&gt;&lt;div&gt;After Payment completed successfully, user will be directed to Order completed page where user can review order details along with expected delivery day or time.&lt;/div&gt;&lt;div&gt;User can manually select to redirect either to home or any other view of application.&lt;/div&gt;" style="text;html=1;strokeColor=none;fillColor=none;spacing=5;spacingTop=-20;whiteSpace=wrap;overflow=hidden;rounded=0;" parent="1" vertex="1">
          <mxGeometry x="480" y="880" width="260" height="170" as="geometry" />
        </mxCell>
        <mxCell id="9YIT4iiV18_NEJyb0_77-2" value="" style="endArrow=none;dashed=1;html=1;dashPattern=1 3;strokeWidth=2;rounded=0;" parent="1" edge="1">
          <mxGeometry width="50" height="50" relative="1" as="geometry">
            <mxPoint x="800" y="1042.666748046875" as="sourcePoint" />
            <mxPoint x="800" y="80" as="targetPoint" />
          </mxGeometry>
        </mxCell>
        <mxCell id="9YIT4iiV18_NEJyb0_77-3" value="&lt;h1&gt;Product Listing&lt;/h1&gt;&lt;div&gt;Allow user to View various categories available for the products and any sub categories.&lt;/div&gt;&lt;div&gt;&lt;br&gt;&lt;/div&gt;&lt;div&gt;Allow user to View list of product in specific category or sub category.&lt;/div&gt;&lt;div&gt;&lt;br&gt;&lt;/div&gt;&lt;div&gt;Allow user to filter product based upon price, category, brands.&lt;/div&gt;&lt;div&gt;&lt;br&gt;&lt;/div&gt;&lt;div&gt;Allow user to search products.&lt;/div&gt;&lt;div&gt;&lt;br&gt;&lt;/div&gt;&lt;div&gt;Allow User to compare between products of same category.&lt;/div&gt;&lt;div&gt;&lt;br&gt;&lt;/div&gt;&lt;div&gt;** Suggest User about recommended product from that category based on purchase experience.&lt;/div&gt;&lt;div&gt;&lt;br&gt;&lt;/div&gt;&lt;div&gt;&lt;br&gt;&lt;/div&gt;" style="text;html=1;strokeColor=none;fillColor=none;spacing=5;spacingTop=-20;whiteSpace=wrap;overflow=hidden;rounded=0;" parent="1" vertex="1">
          <mxGeometry x="880" y="130" width="190" height="360" as="geometry" />
        </mxCell>
        <mxCell id="9YIT4iiV18_NEJyb0_77-4" value="&lt;h1&gt;Catalog Subsystem&lt;/h1&gt;" style="text;html=1;strokeColor=none;fillColor=none;spacing=5;spacingTop=-20;whiteSpace=wrap;overflow=hidden;rounded=0;" parent="1" vertex="1">
          <mxGeometry x="880" y="80" width="280" height="50" as="geometry" />
        </mxCell>
        <mxCell id="9YIT4iiV18_NEJyb0_77-5" value="&lt;h1&gt;Product Details&lt;/h1&gt;&lt;div&gt;Display Product Images and thumbnails on Product Details Page.&lt;/div&gt;&lt;div&gt;&lt;br&gt;&lt;/div&gt;&lt;div&gt;Allow user to hover and review bigger image.&lt;/div&gt;&lt;div&gt;&lt;br&gt;&lt;/div&gt;&lt;div&gt;Allow user to review different SKUs of the product.&lt;/div&gt;&lt;div&gt;&lt;br&gt;&lt;/div&gt;&lt;div&gt;Allow User to Add Product to Cart, or Buy directly without adding to cart.&lt;/div&gt;&lt;div&gt;&lt;br&gt;&lt;/div&gt;&lt;div&gt;Allow user to review product availability based upon the Pincode and estimated delivery time.&lt;/div&gt;&lt;div&gt;&lt;br&gt;&lt;/div&gt;&lt;div&gt;Allow user to review description and specification of the product.&lt;/div&gt;&lt;div&gt;&lt;br&gt;&lt;/div&gt;&lt;div&gt;Recommend similar product from different brand to user&lt;/div&gt;" style="text;html=1;strokeColor=none;fillColor=none;spacing=5;spacingTop=-20;whiteSpace=wrap;overflow=hidden;rounded=0;" parent="1" vertex="1">
          <mxGeometry x="890" y="510" width="190" height="450" as="geometry" />
        </mxCell>
        <mxCell id="qqlp-UehYLI_-b0TaQFV-1" value="" style="endArrow=none;dashed=1;html=1;dashPattern=1 3;strokeWidth=2;rounded=0;" edge="1" parent="1">
          <mxGeometry width="50" height="50" relative="1" as="geometry">
            <mxPoint x="1180" y="1042.666748046875" as="sourcePoint" />
            <mxPoint x="1180" y="80" as="targetPoint" />
          </mxGeometry>
        </mxCell>
      </root>
    </mxGraphModel>
  </diagram>
</mxfile>
